<svg width="66" height="79" viewBox="0 0 66 79" fill="none" xmlns="http://www.w3.org/2000/svg">
<path d="M30.4517 79C28.7576 78.4388 28.06 77.2681 28.1896 75.5555C28.2394 74.946 28.1995 74.3364 28.1995 73.6301C27.0336 73.6301 25.9573 73.6301 24.8811 73.6301C22.5492 73.6204 21.3633 72.4787 21.3633 70.2147C21.3633 69.2181 21.2437 68.2022 21.8615 67.2927C21.9413 67.1669 21.7918 66.8863 21.7121 66.6832C21.1839 65.1738 21.0942 63.6644 21.7818 62.1937C21.9712 61.7777 22.3797 61.3713 22.7883 61.1488C23.3065 60.8682 23.4759 60.5586 23.456 59.9974C23.4161 58.7686 23.4161 57.5302 23.446 56.2917C23.5058 53.9793 22.5292 52.2667 20.5162 51.0089C16.4404 48.474 13.3511 45.0585 11.5175 40.6949C7.9897 32.2869 9.03607 24.3724 14.7064 17.1545C18.5331 12.2878 23.7151 9.47224 29.9435 8.48534C30.1029 8.45631 30.2624 8.43696 30.4119 8.42729C31.1991 8.37891 31.7173 8.71755 31.8469 9.34646C31.9665 9.96568 31.528 10.5269 30.7407 10.701C29.6844 10.9332 28.5981 11.0687 27.5617 11.3686C20.6358 13.3811 15.7527 17.6577 13.2813 24.2273C9.70374 33.7286 13.1318 43.4718 21.8316 49.0738C24.5422 50.8154 25.8577 53.1956 25.8078 56.3304C25.7879 57.714 25.8078 59.1073 25.8078 60.5392C30.9001 60.5392 35.9426 60.5392 41.1047 60.5392C41.1047 59.6298 41.0649 58.7106 41.1147 57.8011C41.1944 56.3982 41.1944 54.9662 41.5033 53.6019C41.892 51.87 42.9981 50.4865 44.5229 49.4899C47.064 47.816 49.366 45.9196 51.1299 43.4427C53.0333 40.782 54.2291 37.8503 54.7573 34.6574C54.7872 34.5026 54.8072 34.3478 54.847 34.2027C55.0463 33.419 55.5645 33.0319 56.2422 33.1384C56.9198 33.2448 57.2885 33.7866 57.169 34.5994C56.8002 37.2117 56.0229 39.7177 54.7673 42.0591C52.8639 45.6197 50.243 48.5804 46.7551 50.7477C44.4033 52.2087 43.317 54.1921 43.4865 56.8916C43.5562 57.9946 43.4665 59.1073 43.5164 60.2103C43.5263 60.4715 43.7356 60.8295 43.9648 60.9746C45.0112 61.6229 45.5892 62.5034 45.5692 63.7128C45.5493 64.8061 45.7586 65.9285 45.0709 66.9347C45.0012 67.0315 45.0809 67.2734 45.1507 67.4185C45.8184 68.744 45.6988 70.1373 45.4098 71.4919C45.1407 72.7303 44.0047 73.543 42.6892 73.5817C41.4037 73.6204 40.1082 73.5914 38.733 73.5914C38.733 74.3364 38.6931 74.975 38.7429 75.6136C38.8725 77.2971 38.135 78.4291 36.4908 78.9806C34.4777 79 32.4647 79 30.4517 79ZM33.5111 62.9388C30.6012 62.9388 27.6913 62.9484 24.7814 62.9291C24.044 62.9291 23.6952 63.2 23.735 63.9353C23.745 64.1675 23.735 64.3997 23.735 64.632C23.735 65.8801 23.8546 65.9865 25.1401 65.9865C30.4816 65.9865 35.8231 65.9865 41.1645 65.9865C43.2373 65.9865 43.2373 65.9865 43.1974 64.0127C43.1775 63.0936 43.038 62.9484 42.0714 62.9484C39.2213 62.9388 36.3612 62.9388 33.5111 62.9388ZM33.551 68.3086C30.8802 68.3086 28.1995 68.3086 25.5288 68.3086C23.735 68.3086 23.735 68.3086 23.745 70.0502C23.745 71.2403 23.8347 71.3274 25.0604 71.3274C30.4617 71.3274 35.8629 71.3274 41.2642 71.3274C43.2373 71.3274 43.2373 71.3274 43.2074 69.431C43.1975 68.4441 43.0679 68.3183 42.0514 68.3086C39.2113 68.299 36.3811 68.3086 33.551 68.3086ZM30.5912 73.6785C30.5912 74.5299 30.5414 75.304 30.6211 76.0587C30.6411 76.2812 30.9998 76.6489 31.219 76.6489C32.7238 76.6972 34.2286 76.6972 35.7234 76.6489C35.9426 76.6392 36.3114 76.3296 36.3213 76.1361C36.3911 75.333 36.3512 74.5106 36.3512 73.6591C34.408 73.6785 32.5444 73.6785 30.5912 73.6785Z" fill="#DC6741"/>
<path d="M29.6544 19.8347C29.6544 18.7317 29.6445 17.677 29.6544 16.6224C29.6743 15.3936 30.2822 14.7647 31.5578 14.7357C32.8234 14.697 34.099 14.697 35.3745 14.7357C36.67 14.7744 37.268 15.4033 37.2879 16.6901C37.2979 17.7448 37.2879 18.7897 37.2879 19.8153C39.271 20.7151 39.271 20.7151 40.7459 19.2928C41.1047 18.9445 41.4435 18.5865 41.8222 18.2672C42.6493 17.5609 43.5163 17.5512 44.3135 18.2769C45.3001 19.1767 46.2468 20.1056 47.1835 21.0538C47.9608 21.8471 47.9509 22.7179 47.1736 23.521C46.5059 24.2176 45.8083 24.8852 45.1008 25.5432C44.8018 25.8141 44.8317 26.0366 44.9214 26.4043C45.2403 27.6621 45.9678 28.1362 47.2932 27.9233C47.911 27.8169 48.5588 27.8846 49.1966 27.9233C50.1533 27.9814 50.791 28.5716 50.8209 29.5004C50.8608 30.884 50.8708 32.2773 50.8309 33.6609C50.801 34.7058 50.1034 35.2767 48.9375 35.3154C48.0107 35.3444 47.0839 35.3444 46.1571 35.3154C45.7187 35.296 45.5692 35.4895 45.3399 35.8378C44.6324 36.9408 44.8915 37.7342 45.9279 38.4599C46.4162 38.7985 46.8148 39.2629 47.2234 39.708C47.9409 40.4917 47.9609 41.3528 47.2134 42.1269C46.2867 43.0847 45.33 44.0136 44.3534 44.9037C43.5163 45.6681 42.6094 45.6391 41.7524 44.8457C41.0648 44.2071 40.427 43.5105 39.7095 42.9009C39.5202 42.7364 39.1215 42.7074 38.8425 42.7558C37.4972 42.9686 37.0886 43.7814 37.2979 45.0295C37.3975 45.61 37.3377 46.2099 37.2979 46.8001C37.2281 47.8064 36.6003 48.4256 35.5639 48.4546C34.1887 48.4836 32.8134 48.4836 31.4382 48.4546C30.3719 48.4256 29.7341 47.787 29.6943 46.7324C29.6644 45.8035 29.6644 44.8844 29.6943 43.9555C29.7042 43.5105 29.5348 43.3363 29.1362 43.0944C27.9902 42.4268 27.173 42.6784 26.4256 43.6846C26.0768 44.1587 25.5985 44.5457 25.1401 44.9424C24.3728 45.61 23.4659 45.6391 22.7185 44.9618C21.6921 44.0329 20.6955 43.0751 19.7388 42.0688C19.0114 41.3045 19.0612 40.4434 19.8186 39.6596C20.4663 38.9824 21.144 38.3341 21.8416 37.6955C22.1505 37.4149 22.1704 37.1827 22.0608 36.7764C21.7319 35.5573 21.0244 35.0832 19.7289 35.3057C19.1907 35.4024 18.6227 35.3347 18.0647 35.3154C16.799 35.2767 16.1712 34.6574 16.1513 33.4383C16.1314 32.1999 16.1314 30.9711 16.1513 29.7326C16.1712 28.5426 16.809 27.933 18.0248 27.9136C18.9815 27.8943 19.9282 27.8943 20.8849 27.9136C21.2934 27.9233 21.4728 27.7782 21.6223 27.4105C22.2202 25.8915 22.2402 25.9012 21.0443 24.7401C20.6357 24.3434 20.2072 23.9564 19.8086 23.5403C19.0413 22.7179 19.0114 21.8762 19.7986 21.0731C20.7055 20.1443 21.6522 19.2348 22.6089 18.3446C23.4659 17.5512 24.3429 17.5512 25.2098 18.3253C25.9074 18.9542 26.5751 19.6121 27.2328 20.2894C27.5218 20.5893 27.771 20.6958 28.1795 20.4829C28.608 20.2217 29.1063 20.0572 29.6544 19.8347ZM43.0081 20.3281C42.2208 21.1118 41.4435 21.8858 40.6662 22.6502C39.8988 23.3952 39.5899 23.4242 38.6333 22.9985C37.7962 22.6212 36.9491 22.2535 36.0721 21.9826C35.235 21.7214 34.8663 21.2473 34.8962 20.3958C34.9361 19.3025 34.9062 18.1995 34.9062 17.0868C33.9096 17.0868 33.0227 17.0868 32.0461 17.0868C32.0461 18.2479 32.0361 19.3799 32.0461 20.5023C32.0561 21.2473 31.7172 21.6827 30.9898 21.9342C30.0929 22.2438 29.2159 22.5922 28.3589 22.9792C27.3524 23.4339 27.0634 23.4146 26.2562 22.6309C25.4689 21.8665 24.7016 21.1021 24.004 20.4055C23.2566 21.0828 22.5889 21.6923 21.8515 22.3503C22.7085 23.163 23.5456 23.9564 24.3827 24.7401C24.9408 25.2529 25.0006 25.8044 24.6717 26.4817C24.2631 27.3138 23.9044 28.1652 23.5755 29.0263C23.2068 29.9939 22.9178 30.2164 21.8117 30.2164C20.7354 30.2164 19.6492 30.2164 18.553 30.2164C18.553 31.1743 18.553 32.0547 18.553 32.9933C19.7488 32.9933 20.8849 33.0126 22.011 32.9836C22.8281 32.9642 23.2666 33.3222 23.5357 34.0576C23.8446 34.9283 24.1934 35.7895 24.6219 36.6119C25.0205 37.3762 24.9408 37.9664 24.303 38.5373C23.4759 39.292 22.6786 40.0757 21.9611 40.753C22.6587 41.4883 23.2766 42.1366 23.9542 42.8525C24.7714 42.0398 25.5786 41.2561 26.3559 40.453C26.904 39.8822 27.4919 39.8048 28.2194 40.1337C29.1063 40.5304 30.0032 40.8981 30.92 41.2174C31.6973 41.4883 32.076 41.943 32.0561 42.7655C32.0162 43.8588 32.0461 44.9618 32.0461 46.0841C33.0327 46.0841 33.9395 46.0841 34.9062 46.0841C34.9062 44.9328 34.9261 43.8298 34.8962 42.7364C34.8763 41.9527 35.235 41.5077 35.9824 41.2367C36.8993 40.9174 37.8061 40.5595 38.6831 40.1531C39.4405 39.8048 40.0284 39.8822 40.6064 40.4724C41.3837 41.2754 42.2009 42.0398 42.9383 42.7751C43.6458 42.0979 44.2936 41.4786 45.0111 40.7917C44.2338 40.0563 43.4366 39.2726 42.6094 38.5179C42.0015 37.9664 41.9119 37.3859 42.2906 36.6506C42.6991 35.8572 43.038 35.0154 43.3568 34.1737C43.7256 33.2061 43.9747 33.0029 45.031 32.9933C46.1372 32.9933 47.2433 32.9933 48.3894 32.9933C48.3894 32.0354 48.3894 31.1549 48.3894 30.2164C47.2234 30.2164 46.1173 30.1971 45.0111 30.2261C44.1441 30.2454 43.6458 29.8681 43.3768 29.0747C43.0878 28.2233 42.739 27.3912 42.3205 26.5881C41.9218 25.8334 41.9816 25.2336 42.6294 24.653C43.4665 23.908 44.2737 23.1243 45.041 22.3986C44.3334 21.6827 43.6957 21.0344 43.0081 20.3281Z" fill="#DC6741"/>
<path d="M36.5306 8.44674C39.1913 8.75636 41.8421 9.51104 44.3235 10.7882C50.9704 14.2036 55.1659 19.4864 56.87 26.6076C57.0294 27.2558 57.1191 27.9234 57.2088 28.5813C57.3184 29.3457 56.9198 29.9069 56.2421 30.023C55.6243 30.1294 55.0762 29.7231 54.8968 28.9974C54.548 27.5751 54.3587 26.1044 53.8504 24.7402C50.9206 16.8934 45.1407 12.2782 36.7 10.7882C36.4907 10.7495 36.2814 10.7301 36.0821 10.6721C35.3845 10.4786 34.976 9.96579 35.1055 9.38526C35.2351 8.72733 35.6935 8.40804 36.5306 8.44674Z" fill="#DC6741"/>
<path d="M32.2852 3.04777C32.2852 2.42854 32.2553 1.81898 32.2952 1.20943C32.3351 0.474097 32.8234 0.00967545 33.4612 0C34.0989 0 34.6171 0.464421 34.6371 1.19976C34.6769 2.45756 34.6769 3.7057 34.6371 4.9635C34.6171 5.68916 34.069 6.18261 33.4412 6.12456C32.7436 6.0665 32.3351 5.66014 32.3052 4.97318C32.2653 4.3346 32.2952 3.68634 32.2852 3.04777Z" fill="#DC6741"/>
<path d="M4.05329 32.7224C3.39557 32.7224 2.73786 32.7418 2.07017 32.7127C1.38256 32.6934 0.983952 32.2773 0.944091 31.6484C0.904229 31.0099 1.27295 30.5164 1.95059 30.4874C3.36568 30.4293 4.79074 30.4293 6.21579 30.4874C6.87351 30.5164 7.24222 30.9808 7.23226 31.6388C7.22229 32.2483 6.74395 32.6837 6.03641 32.7224C5.36873 32.7514 4.71101 32.7321 4.05329 32.7224C4.05329 32.7224 4.05329 32.7321 4.05329 32.7224Z" fill="#DC6741"/>
<path d="M62.8392 32.7224C62.1815 32.7224 61.5238 32.7417 60.8661 32.7127C60.1884 32.6934 59.7699 32.3064 59.7201 31.6581C59.6702 31.0098 60.039 30.5067 60.7066 30.4874C62.1516 30.4293 63.6066 30.439 65.0416 30.497C65.6794 30.5261 66.0281 31.0195 65.9983 31.6194C65.9684 32.2483 65.5897 32.674 64.8921 32.703C64.2045 32.7417 63.5169 32.7224 62.8392 32.7224Z" fill="#DC6741"/>
<path d="M14.1582 14.0584C13.7297 13.8165 13.371 13.6908 13.1218 13.4585C12.2648 12.6652 11.4277 11.8524 10.6006 11.0203C9.98273 10.4011 9.96279 9.76252 10.481 9.2594C10.9892 8.77562 11.6669 8.81433 12.2947 9.40453C13.1816 10.2463 14.0984 11.0687 14.8957 11.9879C15.1548 12.2878 15.1946 12.8974 15.085 13.3037C14.9953 13.6037 14.4971 13.7875 14.1582 14.0584Z" fill="#DC6741"/>
<path d="M52.7044 13.9907C52.4453 13.7875 51.9869 13.6037 51.8573 13.2941C51.7178 12.9458 51.7278 12.3459 51.947 12.104C52.8837 11.0687 53.9102 10.1012 54.9466 9.16266C55.405 8.74662 55.9929 8.82402 56.4514 9.25942C56.8799 9.66579 57.0194 10.2173 56.6208 10.643C55.6043 11.717 54.5181 12.7232 53.4418 13.7295C53.3123 13.8649 53.0631 13.8746 52.7044 13.9907Z" fill="#DC6741"/>
<path d="M15.3939 50.3414C15.1647 50.7477 15.0451 51.0767 14.8259 51.2992C13.9888 52.1507 13.1318 52.9828 12.2548 53.8052C11.627 54.3954 10.9394 54.4147 10.4311 53.9019C9.9528 53.4085 9.9827 52.7796 10.5607 52.1991C11.4177 51.3379 12.2747 50.4478 13.2115 49.6738C13.5204 49.4125 14.1482 49.3255 14.5568 49.4319C14.8956 49.5093 15.1149 50.0124 15.3939 50.3414Z" fill="#DC6741"/>
<path d="M52.7941 49.1222C53.2126 49.3738 53.5614 49.5092 53.8205 49.7414C54.6775 50.5348 55.5146 51.3572 56.3418 52.1796C56.9497 52.7989 56.9796 53.4471 56.4613 53.9406C55.9631 54.4147 55.3054 54.3953 54.6975 53.8341C53.8006 53.002 52.8937 52.1796 52.0865 51.2605C51.8175 50.9508 51.7178 50.3413 51.8274 49.9446C51.9171 49.6156 52.4353 49.4028 52.7941 49.1222Z" fill="#DC6741"/>
<path d="M33.4612 25.4174C36.969 25.4077 39.839 28.1846 39.839 31.5806C39.839 34.9767 36.969 37.7729 33.4811 37.7826C29.9932 37.7923 27.1132 34.9961 27.1032 31.6C27.0933 28.2039 29.9434 25.4271 33.4612 25.4174ZM29.485 31.5806C29.475 33.7092 31.2688 35.4702 33.4512 35.4798C35.6336 35.4895 37.4374 33.7383 37.4473 31.6097C37.4573 29.4714 35.6834 27.7395 33.4811 27.7298C31.2688 27.7201 29.485 29.4424 29.485 31.5806Z" fill="#DC6741"/>
</svg>
