<svg width="48" height="48" viewBox="0 0 48 48" fill="none" xmlns="http://www.w3.org/2000/svg">
<path d="M10.4146 12.8599C8.82625 12.8599 7.24835 12.8701 5.66 12.8497C5.31516 12.8497 5.22112 12.9417 5.22112 13.2792C5.26292 16.0198 5.16887 18.7501 5.28381 21.4907C5.29426 21.7157 5.30471 21.9304 5.33606 22.1554C5.40921 22.6258 5.6809 22.9224 6.18249 22.9939C6.61092 23.0655 7.04981 23.0757 7.48869 23.0655C7.70814 23.0553 7.81263 23.1269 7.80218 23.3518C7.79173 23.6586 7.79173 23.9654 7.80218 24.2722C7.81263 24.5176 7.69769 24.5892 7.45735 24.5892C5.10617 24.579 2.755 24.579 0.403821 24.5892C0.142579 24.5892 0.0485325 24.5176 0.0276331 24.2517C-0.0455145 23.1064 -0.0559642 23.1064 1.0935 23.0553C2.04442 23.0144 2.38926 22.6974 2.4833 21.7668C2.5042 21.5521 2.5042 21.3271 2.5042 21.1021C2.5042 15.3039 2.5042 9.50576 2.5042 3.70758C2.5042 3.58487 2.5042 3.47238 2.5042 3.34967C2.46241 1.92825 2.05487 1.5192 0.612814 1.53966C0.142579 1.54988 -0.0141655 1.42717 0.00673379 0.956771C0.0485325 0.0364253 0.0171835 0.0364254 0.947204 0.0364254C3.03714 0.0364254 5.12707 0.0466515 7.217 0.0261993C7.63499 0.0261993 7.80218 0.108008 7.79173 0.547728C7.76039 1.46807 7.79174 1.46807 6.87216 1.53966C5.7436 1.63169 5.36741 1.9896 5.29426 3.10424C5.13752 5.5994 5.26292 8.09456 5.22112 10.5999C5.22112 10.876 5.32561 10.9476 5.58686 10.9374C8.7949 10.9272 11.9925 10.9272 15.2005 10.9374C15.514 10.9374 15.5767 10.8147 15.5663 10.5488C15.5558 8.08434 15.5663 5.61986 15.5454 3.15537C15.5349 2.03051 15.0229 1.57033 13.863 1.53966C13.0584 1.5192 13.0584 1.5192 13.0584 0.721572C13.0584 -0.024931 12.9539 0.0466515 13.7585 0.0466515C15.9216 0.0466515 18.0742 0.0568775 20.2373 0.0364254C20.6344 0.0364254 20.7807 0.108008 20.7702 0.537502C20.7389 1.4783 20.7702 1.4783 19.8298 1.54988C18.7848 1.62146 18.419 1.9896 18.3563 3.02244C18.325 3.54396 18.3354 4.07572 18.3354 4.59725C18.3354 10.058 18.3354 15.5085 18.3354 20.9692C18.3354 21.2453 18.3459 21.5112 18.3563 21.7873C18.4086 22.7076 18.6907 22.9837 19.6312 23.0451C19.6626 23.0451 19.7044 23.0451 19.7357 23.0553C20.0596 23.1064 20.5194 22.9121 20.6762 23.1473C20.9061 23.4643 20.7284 23.9347 20.7493 24.3438C20.7598 24.5585 20.6239 24.5892 20.4463 24.5892C18.0742 24.5892 15.7126 24.6301 13.3405 24.5585C12.7135 24.5381 13.1629 23.9041 13.0584 23.5666C13.0061 23.3927 12.9121 23.0655 13.3405 23.0655C13.7585 23.0655 14.1765 23.0962 14.584 23.0042C15.2632 22.861 15.5036 22.6156 15.5245 21.9304C15.5454 21.3373 15.5454 20.7442 15.5454 20.1409C15.5454 17.8605 15.5349 15.58 15.5558 13.3099C15.5558 12.9519 15.4618 12.8497 15.0961 12.8599C13.5495 12.8701 11.982 12.8599 10.4146 12.8599Z" fill="#F29C37"/>
<path d="M37.3224 12.8599C35.755 12.8599 34.1875 12.8701 32.6201 12.8497C32.2543 12.8497 32.1498 12.9417 32.1603 13.2996C32.1812 15.9482 32.1707 18.607 32.1707 21.2555C32.1707 21.2862 32.1707 21.3271 32.1707 21.3578C32.2125 22.7792 32.4738 23.0348 33.9367 23.0553C34.0726 23.0553 34.2189 23.0655 34.3547 23.0553C34.6055 23.0348 34.6682 23.1269 34.6891 23.3723C34.7518 24.579 34.7623 24.579 33.5397 24.579C31.502 24.579 29.4643 24.5688 27.4266 24.5892C27.0295 24.5892 26.9355 24.4767 26.9355 24.0984C26.9564 23.0962 26.9355 23.0962 27.9909 23.0553C28.9522 23.0144 29.2448 22.769 29.3807 21.8282C29.412 21.6134 29.4434 21.3884 29.4434 21.1737C29.4434 15.2733 29.4434 9.37282 29.4329 3.48261C29.4329 3.32922 29.412 3.17583 29.3911 3.02244C29.2344 1.84644 28.8896 1.54988 27.6565 1.52943C26.9355 1.5192 26.9355 1.5192 26.9355 0.834058C26.9355 0.701119 26.9459 0.557955 26.9355 0.425016C26.8937 0.0977818 27.04 0.0261993 27.3534 0.0261993C29.6524 0.0364254 31.9513 0.0364254 34.2502 0.0261993C34.5951 0.0261993 34.6891 0.12846 34.6891 0.46592C34.6891 1.46807 34.6996 1.46807 33.7173 1.54988C32.7141 1.64192 32.3797 1.93847 32.223 2.92018C32.1916 3.13492 32.1707 3.3599 32.1707 3.57464C32.1707 5.86528 32.1812 8.16615 32.1603 10.4568C32.1603 10.8351 32.2648 10.9374 32.6514 10.9374C35.7654 10.917 38.8794 10.9272 42.0039 10.9374C42.3801 10.9374 42.5159 10.8658 42.5055 10.467C42.4846 8.15592 42.495 5.84483 42.495 3.53374C42.495 3.32922 42.4741 3.1247 42.4428 2.9304C42.3278 1.9896 41.9203 1.62147 40.9589 1.54988C39.9662 1.4783 39.9766 1.4783 39.9766 0.476146C39.9766 0.148912 40.0602 0.0364254 40.4155 0.0364254C42.6831 0.0466515 44.9402 0.0568775 47.2078 0.0364254C47.5945 0.0364254 47.6676 0.17959 47.6572 0.506824C47.6467 1.4783 47.6572 1.4783 46.6958 1.54988C45.7762 1.62147 45.4209 1.93847 45.2955 2.81791C45.2537 3.1247 45.2328 3.43148 45.2328 3.72803C45.2328 9.48531 45.2328 15.2528 45.2328 21.0101C45.2328 21.368 45.2642 21.7259 45.3164 22.0736C45.4 22.6769 45.6195 22.8917 46.236 23.0042C46.3927 23.0348 46.5495 23.0246 46.7062 23.0451C47.0093 23.086 47.5004 22.9121 47.584 23.1371C47.7303 23.5052 47.6467 23.9654 47.6467 24.3949C47.6467 24.5892 47.4691 24.5688 47.3332 24.5688C45.0029 24.5688 42.6727 24.5688 40.3319 24.5688C40.102 24.5688 39.9975 24.5074 39.9871 24.2517C39.9035 23.1064 39.893 23.1166 41.0739 23.0348C41.983 22.9735 42.4741 22.8099 42.4637 21.7873C42.4637 21.5827 42.495 21.3782 42.495 21.1737C42.495 18.607 42.4846 16.0402 42.5055 13.4735C42.5055 12.9826 42.4219 12.8088 41.868 12.819C40.3528 12.8906 38.8376 12.8599 37.3224 12.8599Z" fill="#F29C37"/>
<path d="M12.0146 39.0958C12.7285 39.0958 12.7214 39.0958 12.9713 39.7608C13.8708 42.1489 14.7775 44.5299 15.6842 46.918C15.8269 47.3041 15.8269 47.3041 15.4343 47.3041C14.5419 47.3041 14.5419 47.3041 14.2278 46.4819C14.0421 45.9814 13.8422 45.488 13.6638 44.9803C13.6066 44.8159 13.5353 44.7301 13.3425 44.7301C12.4287 44.7372 11.5077 44.7444 10.5939 44.7301C10.3655 44.7301 10.3155 44.8588 10.2584 45.0161C10.0156 45.6882 9.75862 46.3532 9.53017 47.0253C9.45878 47.2398 9.35169 47.3327 9.12324 47.3113C8.93762 47.2898 8.74486 47.3113 8.5521 47.3041C8.17372 47.3041 8.17372 47.3041 8.31651 46.9252C8.68775 45.9384 9.06612 44.9517 9.43736 43.965C9.99422 42.4992 10.5582 41.0406 11.0865 39.5677C11.2222 39.1816 11.4078 39.0314 11.8004 39.1029C11.8718 39.1029 11.9432 39.0958 12.0146 39.0958ZM11.9646 40.0325C11.6148 41.3481 11.1222 42.5064 10.6867 43.679C10.6153 43.8649 10.7153 43.8792 10.8581 43.8792C11.6077 43.8792 12.3573 43.8792 13.0998 43.8792C13.264 43.8792 13.3068 43.8363 13.2425 43.6719C12.8285 42.4992 12.3145 41.3481 11.9646 40.0325Z" fill="#F29C37"/>
<path d="M40.5296 47.3018C40.4365 47.3018 40.3362 47.2875 40.2431 47.3018C39.9782 47.3516 39.8708 47.2091 39.7849 46.9811C39.5414 46.3113 39.2765 45.6557 39.0402 44.9858C38.9757 44.8006 38.8826 44.7293 38.6821 44.7364C37.7871 44.7507 36.892 44.7507 35.9969 44.7364C35.7749 44.7364 35.6818 44.8219 35.6174 45.0143C35.3811 45.6984 35.1161 46.3683 34.8798 47.0524C34.8154 47.2305 34.7366 47.3303 34.5218 47.3089C34.3213 47.2875 34.1137 47.2875 33.9132 47.3089C33.5551 47.3445 33.5551 47.202 33.6625 46.9241C34.1566 45.6414 34.6435 44.3587 35.1305 43.0761C35.5959 41.8575 36.0613 40.6461 36.5125 39.4205C36.5984 39.1924 36.6986 39.0927 36.9493 39.1212C37.3216 39.1639 37.7871 38.9715 38.0592 39.1996C38.3098 39.4062 38.3599 39.848 38.4888 40.1972C39.3337 42.4062 40.1787 44.6153 41.0308 46.8315C41.217 47.3089 41.2098 47.3089 40.7086 47.3089C40.6441 47.3018 40.5868 47.3018 40.5296 47.3018ZM37.3216 40.2186C36.9636 41.4015 36.4767 42.5274 36.0542 43.6747C35.9683 43.9098 36.1115 43.9027 36.269 43.8956C36.9851 43.8956 37.7011 43.8884 38.41 43.8956C38.6248 43.8956 38.675 43.8528 38.5962 43.639C38.1737 42.506 37.6868 41.3943 37.3216 40.2186Z" fill="#F29C37"/>
<path d="M17.1506 43.2686C17.1506 42.0265 17.1584 40.7915 17.1428 39.5494C17.1428 39.3364 17.1894 39.2442 17.4534 39.2158C18.6879 39.0951 19.9303 38.9815 21.157 39.2513C23.1214 39.6771 23.9367 41.5367 22.7876 42.9492C22.2363 43.6235 21.4366 43.9003 20.5592 44.0493C19.9846 44.1487 19.4023 44.1416 18.8199 44.1061C18.5094 44.0848 18.455 44.1771 18.455 44.4326C18.4705 45.2843 18.4472 46.129 18.4705 46.9807C18.4783 47.2575 18.3774 47.3143 18.0978 47.3143C17.1506 47.3072 17.1506 47.3143 17.1506 46.4484C17.1506 45.3908 17.1506 44.3261 17.1506 43.2686ZM19.5187 39.9539C19.2858 39.9326 19.014 39.9894 18.7423 40.0036C18.5249 40.0107 18.455 40.0817 18.455 40.2804C18.4628 41.1747 18.4628 42.0691 18.455 42.9634C18.455 43.1124 18.4861 43.1905 18.6802 43.2189C19.3712 43.3183 20.0467 43.297 20.7067 43.0982C21.5453 42.8498 21.9878 42.2536 21.9645 41.4658C21.9412 40.7489 21.4754 40.2662 20.5902 40.0604C20.2486 39.9752 19.8992 39.9397 19.5187 39.9539Z" fill="#F29C37"/>
<path d="M4.33239 48C3.42559 47.985 2.38418 47.7672 1.49155 47.0538C0.528082 46.2953 0.0817674 45.2365 0.0109238 43.9974C-0.17327 40.8884 1.99455 39.056 4.79995 39.0861C5.41629 39.0936 6.01846 39.1687 6.61355 39.3564C6.85441 39.4315 6.89692 39.5366 6.81191 39.7845C6.62063 40.3702 6.62772 40.3702 6.06805 40.22C5.31711 40.0173 4.552 39.9872 3.79397 40.1599C2.20707 40.5129 1.30736 41.7069 1.26485 43.5017C1.21526 45.5894 2.5117 47.0012 4.48824 47.0313C5.15417 47.0388 5.80593 46.9862 6.43644 46.7459C6.61355 46.6783 6.66314 46.7384 6.69856 46.9036C6.87567 47.6996 7.08111 47.5494 6.23808 47.7897C5.67133 47.9549 5.0975 48 4.33239 48Z" fill="#F29C37"/>
<path d="M29.842 43.6337C29.842 42.5382 29.8341 41.4427 29.85 40.3472C29.8579 40.0751 29.7628 40.0035 29.4695 40.0107C28.677 40.025 27.8845 40.0107 27.0919 40.0179C26.8462 40.025 26.7353 39.9749 26.7432 39.7243C26.767 38.9439 26.6481 39.1014 27.4169 39.0942C29.5567 39.0871 31.6966 39.1014 33.8365 39.0871C34.1693 39.0871 34.3358 39.1444 34.2724 39.4737C34.2565 39.5668 34.2565 39.667 34.2724 39.7601C34.2961 39.9677 34.1931 40.025 33.9791 40.0179C33.1866 40.0107 32.394 40.0322 31.6015 40.0035C31.229 39.9892 31.1735 40.1038 31.1735 40.4045C31.1894 42.5811 31.1735 44.7578 31.1894 46.9416C31.1894 47.2351 31.1101 47.321 30.7772 47.3139C29.842 47.2996 29.842 47.3139 29.842 46.4833C29.842 45.5382 29.842 44.5859 29.842 43.6337Z" fill="#F29C37"/>
<path d="M43.8324 42.7667C43.8324 43.8624 43.84 44.9581 43.8247 46.0539C43.8171 46.3403 43.9243 46.4119 44.2154 46.4119C45.3491 46.3976 46.4905 46.4119 47.6243 46.3976C47.9 46.3976 48.0073 46.4477 47.9996 46.727C47.9843 47.3071 47.9996 47.3071 47.3715 47.3071C45.8777 47.3071 44.3839 47.3 42.8902 47.3143C42.5837 47.3143 42.5071 47.2283 42.5148 46.9562C42.5225 44.4425 42.5225 41.9288 42.5148 39.4223C42.5148 39.1502 42.5991 39.0857 42.8825 39.0857C43.8324 39.0929 43.84 39.0857 43.84 39.9737C43.8324 40.9119 43.8324 41.8429 43.8324 42.7667Z" fill="#F29C37"/>
<path d="M23.5709 12.3486C23.5709 8.42181 23.5709 4.495 23.5709 0.578422C23.5709 0.0568927 23.7903 -0.0862722 24.3128 0.0466666C24.4277 0.0773448 24.5009 0.128475 24.5009 0.240962C24.5009 0.343222 24.5009 0.445483 24.5009 0.547744C24.5009 8.38091 24.5009 16.2141 24.5009 24.0472C24.5009 24.3438 24.5427 24.5994 24.0725 24.5892C23.6545 24.5892 23.5604 24.4665 23.5604 24.0677C23.5709 20.1716 23.5709 16.255 23.5709 12.3486Z" fill="#F29C37"/>
<path d="M26.0492 43.2075C26.0492 44.4523 26.0413 45.7043 26.0571 46.9491C26.0571 47.2138 26.0019 47.3211 25.6709 47.3139C24.6936 47.2996 24.6935 47.3139 24.6935 46.4197C24.6935 44.1161 24.7014 41.8125 24.6857 39.5089C24.6857 39.2012 24.7408 39.0725 25.127 39.0868C26.0492 39.1154 26.0492 39.0939 26.0492 39.9238C26.0492 41.0184 26.0492 42.1129 26.0492 43.2075Z" fill="#F29C37"/>
<path d="M22.6279 33.0627C22.2669 33.0627 21.9135 33.0704 21.5525 33.0627C21.3759 33.0627 21.299 33.1248 21.299 33.3113C21.3067 33.8396 21.3067 34.3679 21.3067 34.8963C21.3067 35.1527 21.4219 35.277 21.6754 35.2847C21.806 35.2925 21.9827 35.2304 21.975 35.4634C21.975 35.7276 21.7753 35.6421 21.637 35.6499C21.1531 35.6577 20.6615 35.6499 20.1776 35.6499C20.0547 35.6499 19.9088 35.681 19.8934 35.4867C19.8781 35.3003 19.9933 35.277 20.1392 35.2847C20.4695 35.3003 20.5463 35.1216 20.5463 34.8263C20.5386 33.5755 20.5386 32.3246 20.5463 31.0659C20.5463 30.7318 20.4465 30.5454 20.0931 30.5454C19.9856 30.5454 19.8857 30.5376 19.8857 30.39C19.8857 30.2424 19.9472 30.1802 20.0931 30.1802C20.6538 30.1802 21.2222 30.1802 21.783 30.1802C21.9059 30.1802 21.9673 30.2346 21.9673 30.3667C21.9673 30.4987 21.9059 30.5531 21.783 30.5454C21.3605 30.5376 21.276 30.794 21.2914 31.1514C21.3067 31.5399 21.3067 31.9283 21.2914 32.3168C21.2837 32.5343 21.3682 32.612 21.5832 32.6043C22.2899 32.5965 22.9889 32.5965 23.6955 32.6043C23.9336 32.612 24.0028 32.5188 23.9951 32.2857C23.9797 31.8739 23.9797 31.4622 23.9951 31.0504C24.0028 30.7318 23.8799 30.5531 23.5573 30.5454C23.4037 30.5454 23.3038 30.5143 23.3268 30.3278C23.3422 30.1491 23.4728 30.1724 23.5803 30.1724C24.0949 30.1724 24.6019 30.1724 25.1165 30.1724C25.2317 30.1724 25.3546 30.1569 25.37 30.3278C25.3854 30.5143 25.2778 30.5298 25.1319 30.5376C24.84 30.5454 24.7402 30.7241 24.7402 30.996C24.7478 32.2702 24.7478 33.5522 24.7402 34.8263C24.7402 35.106 24.8323 35.277 25.1319 35.2614C25.2778 35.2537 25.3777 35.2925 25.37 35.4712C25.3546 35.6499 25.2317 35.6266 25.1165 35.6266C24.6019 35.6266 24.0949 35.6266 23.5803 35.6266C23.4421 35.6266 23.3192 35.6266 23.3268 35.4324C23.3345 35.2614 23.4344 35.2537 23.565 35.2614C23.9029 35.2847 24.0105 35.106 24.0028 34.7875C23.9874 34.3213 23.9874 33.8552 24.0028 33.3968C24.0105 33.1326 23.9413 33.0238 23.6648 33.0394C23.3192 33.086 22.9735 33.0627 22.6279 33.0627Z" fill="#F29C37"/>
<path d="M2.76942 32.609C3.11646 32.609 3.4635 32.6013 3.81054 32.609C4.01876 32.6168 4.11131 32.5468 4.10359 32.3213C4.08817 31.8859 4.09588 31.4427 4.10359 31.0072C4.11131 30.7195 3.97249 30.5796 3.69486 30.5485C3.57147 30.5407 3.42494 30.5718 3.42494 30.3619C3.42494 30.1286 3.5946 30.1752 3.72571 30.1752C4.22699 30.1752 4.72827 30.1752 5.22955 30.1752C5.33752 30.1752 5.46862 30.1519 5.48404 30.3308C5.49947 30.5174 5.40692 30.5407 5.25268 30.5407C4.93649 30.5407 4.84395 30.7351 4.84395 31.0228C4.85166 32.2902 4.84395 33.5577 4.84395 34.8251C4.84395 35.1206 4.9442 35.2994 5.26811 35.2761C5.40693 35.2683 5.48404 35.3072 5.48404 35.4705C5.48404 35.6415 5.37608 35.6493 5.25268 35.6493C4.71284 35.6493 4.173 35.6493 3.63316 35.6493C3.51748 35.6493 3.43265 35.626 3.42494 35.486C3.41723 35.3383 3.47892 35.2683 3.62545 35.2839C4.04961 35.3227 4.11131 35.0739 4.09588 34.724C4.08046 34.2575 4.08817 33.7909 4.09588 33.3322C4.1036 33.13 4.02647 33.06 3.82596 33.06C3.10875 33.0678 2.38382 33.0678 1.6666 33.06C1.43524 33.06 1.38125 33.1533 1.38897 33.3633C1.39668 33.8531 1.40439 34.343 1.38897 34.8329C1.38125 35.1439 1.49693 35.2994 1.81313 35.2839C1.95194 35.2761 2.07534 35.2916 2.05991 35.486C2.0522 35.6571 1.94423 35.6571 1.82084 35.6571C1.29642 35.6571 0.764297 35.6571 0.23988 35.6571C0.1242 35.6571 0.0085196 35.6649 0.000807597 35.486C-0.00690441 35.2916 0.101062 35.2761 0.24759 35.2839C0.563783 35.2994 0.640903 35.105 0.640903 34.8407C0.640903 33.5732 0.640903 32.3058 0.640903 31.0383C0.640903 30.7273 0.532936 30.5329 0.193608 30.5485C0.0393676 30.5562 -0.00690441 30.4863 0.000807597 30.3385C0.0085196 30.1908 0.101062 30.183 0.20903 30.183C0.764295 30.183 1.31185 30.183 1.86711 30.183C1.9905 30.183 2.05991 30.2297 2.05991 30.3619C2.05991 30.494 2.00593 30.5485 1.87483 30.5485C1.45067 30.5407 1.36583 30.7973 1.38897 31.1628C1.40439 31.5515 1.40439 31.9403 1.38897 32.3291C1.38125 32.5546 1.46609 32.6246 1.68203 32.6168C2.0522 32.6013 2.41466 32.609 2.76942 32.609Z" fill="#F29C37"/>
<path d="M44.6392 35.6333C44.029 35.6333 43.4187 35.6333 42.801 35.6333C42.676 35.6333 42.5143 35.68 42.5216 35.4466C42.5216 35.2443 42.654 35.2677 42.7716 35.2677C43.0143 35.2599 43.1319 35.1198 43.1319 34.8787C43.1319 33.5638 43.1319 32.2412 43.1319 30.9264C43.1319 30.6307 42.9554 30.5529 42.7275 30.5374C42.6099 30.5296 42.5143 30.5296 42.5143 30.3584C42.5143 30.1561 42.6393 30.1717 42.7643 30.1717C43.9775 30.1717 45.1907 30.1717 46.3965 30.1717C46.5583 30.1717 46.6392 30.2417 46.6907 30.3973C46.8009 30.7397 46.9112 31.082 47.0289 31.4243C47.0804 31.5643 47.0803 31.6577 46.9259 31.7277C46.7495 31.8055 46.7127 31.681 46.6612 31.5643C46.3965 30.9108 45.9186 30.6463 45.2569 30.6774C44.8745 30.693 44.4995 30.6852 44.1172 30.6774C43.926 30.6696 43.8231 30.7163 43.8304 30.9497C43.8451 31.4165 43.8304 31.8833 43.8378 32.3424C43.8378 32.4435 43.8231 32.5446 43.9481 32.5913C44.5216 32.8169 45.1098 32.4746 45.1907 31.8444C45.2127 31.681 45.2569 31.6188 45.4113 31.6266C45.5657 31.6344 45.5877 31.7199 45.5877 31.8522C45.5877 32.498 45.5877 33.1437 45.5877 33.7894C45.5877 33.9139 45.5804 34.0151 45.4186 34.0228C45.2642 34.0306 45.2127 33.9606 45.1907 33.7972C45.1025 33.097 44.6245 32.8014 43.9554 33.0114C43.8451 33.0503 43.8304 33.1204 43.8304 33.2137C43.8304 33.7817 43.8304 34.3496 43.8304 34.9176C43.8304 35.0887 43.9187 35.1899 44.0804 35.1899C44.5216 35.1899 44.9628 35.1976 45.4039 35.1665C46.0877 35.1121 46.551 34.7075 46.8451 34.0695C46.9112 33.9217 46.948 33.7428 47.1833 33.8595C47.4259 33.9762 47.2642 34.1162 47.2274 34.2407C47.1171 34.6064 46.9774 34.9642 46.8745 35.3377C46.8083 35.5789 46.7054 35.6644 46.4627 35.6567C45.8671 35.6178 45.2569 35.6333 44.6392 35.6333Z" fill="#F29C37"/>
<path d="M28.464 35.6571C27.0731 35.6571 26.0436 34.4768 26.0573 32.9029C26.0709 31.3518 27.1277 30.1714 28.5117 30.1714C29.8549 30.1714 30.8571 31.3367 30.8571 32.9029C30.8639 34.5146 29.8685 35.6571 28.464 35.6571ZM26.8413 33.0089C26.8072 33.478 26.8959 33.9471 27.1345 34.3784C27.4481 34.9459 27.8981 35.2486 28.5117 35.2334C29.1253 35.2259 29.5344 34.8702 29.8003 34.3027C30.1617 33.531 30.2026 32.7213 29.9776 31.8966C29.739 31.0264 29.2617 30.6103 28.539 30.6027C27.8095 30.5952 27.2368 31.0643 26.9777 31.8663C26.8618 32.222 26.8277 32.5927 26.8413 33.0089Z" fill="#F29C37"/>
<path d="M39.887 35.6568C39.4789 35.6644 39.0636 35.5363 38.6992 35.2577C38.5462 35.1448 38.4368 35.0694 38.3713 35.333C38.3421 35.4535 38.313 35.5815 38.1453 35.5665C37.9632 35.5514 38.0069 35.3857 37.985 35.2803C37.8903 34.8285 37.8101 34.3766 37.7372 33.9173C37.7154 33.8043 37.6644 33.6763 37.8538 33.616C38.0287 33.5633 38.087 33.6462 38.1453 33.7893C38.4368 34.4745 38.8959 34.9791 39.632 35.1598C40.0619 35.2652 40.4482 35.1673 40.798 34.8962C41.3008 34.5047 41.2571 33.8646 40.7105 33.5407C40.317 33.3073 39.8725 33.2245 39.4425 33.0889C39.1073 32.9835 38.7648 32.8856 38.4587 32.6973C37.6061 32.1626 37.5842 31.0632 38.4296 30.5135C39.1219 30.0616 39.8506 30.0767 40.5794 30.4457C40.7251 30.521 40.8636 30.6791 40.9437 30.3779C40.9656 30.28 41.053 30.2499 41.1478 30.2649C41.2498 30.28 41.2789 30.3553 41.3008 30.4457C41.3955 30.8599 41.4903 31.274 41.5923 31.6807C41.6215 31.8012 41.6725 31.9141 41.4903 31.9669C41.3445 32.012 41.2789 31.9819 41.2061 31.8464C41.002 31.4698 40.747 31.1385 40.3899 30.905C39.9453 30.6113 39.4717 30.5285 38.9688 30.7394C38.6919 30.8599 38.4951 31.0707 38.4733 31.3795C38.4514 31.6958 38.6482 31.9141 38.9105 32.0572C39.2895 32.2605 39.7049 32.3584 40.113 32.4865C40.4409 32.5919 40.7615 32.6973 41.0603 32.8555C41.9785 33.3449 42.0951 34.4971 41.2935 35.1749C40.8854 35.5288 40.4263 35.6644 39.887 35.6568Z" fill="#F29C37"/>
<path d="M32.2238 32.4425C32.2238 31.9762 32.2161 31.5021 32.2238 31.0358C32.2316 30.7299 32.1003 30.5464 31.7837 30.5311C31.637 30.5235 31.5289 30.5006 31.5443 30.3247C31.5598 30.1565 31.6833 30.1718 31.7991 30.1718C32.3165 30.1718 32.8262 30.1718 33.3435 30.1718C33.4748 30.1718 33.6061 30.1565 33.6061 30.3553C33.6061 30.5235 33.5057 30.5311 33.3821 30.5388C33.081 30.5541 32.9574 30.7146 32.9652 31.0128C32.9729 31.9532 32.9574 32.8936 32.9806 33.8341C33.0038 34.6368 33.5675 35.1338 34.386 35.1338C35.2199 35.1338 35.8145 34.6368 35.8531 33.8341C35.8918 32.9089 35.8763 31.9838 35.8763 31.051C35.8763 30.7605 35.7605 30.5541 35.4362 30.5388C35.2972 30.5311 35.22 30.4929 35.2277 30.34C35.2354 30.1718 35.3589 30.1794 35.4748 30.1794C35.9149 30.1794 36.3474 30.1794 36.7875 30.1794C36.9111 30.1794 37.0192 30.1947 37.0269 30.3553C37.0423 30.5158 36.9497 30.5388 36.8184 30.5541C36.4477 30.5847 36.3782 30.8446 36.3782 31.1504C36.3782 31.9532 36.3782 32.7484 36.3782 33.5512C36.3782 34.5298 35.969 35.1873 35.1813 35.4932C34.3088 35.8296 33.3049 35.6384 32.6794 35.0115C32.3551 34.6827 32.2238 34.2775 32.2161 33.8341C32.2238 33.36 32.2316 32.9013 32.2238 32.4425Z" fill="#F29C37"/>
<path d="M14.8101 35.5961C14.3055 35.5961 13.801 35.5961 13.2965 35.5961C13.1811 35.5961 13.0442 35.6347 13.037 35.4342C13.0298 35.2414 13.1379 35.2259 13.2676 35.2336C13.5704 35.2414 13.6713 35.0563 13.6713 34.7709C13.6713 33.5138 13.6713 32.2567 13.6713 31.0073C13.6713 30.7143 13.5487 30.5446 13.2604 30.5369C13.1307 30.5369 13.0154 30.5292 13.0298 30.3364C13.0442 30.1358 13.1811 30.1744 13.2965 30.1744C13.7794 30.1744 14.2551 30.1744 14.738 30.1744C14.8605 30.1744 14.9903 30.1513 15.0047 30.3441C15.0191 30.5446 14.8966 30.5369 14.774 30.5369C14.4929 30.5446 14.3704 30.6911 14.3776 30.9996C14.3848 32.2567 14.3848 33.5138 14.3776 34.7632C14.3776 35.0717 14.4929 35.1411 14.7596 35.1565C15.6606 35.1951 16.3597 34.8866 16.749 33.9688C16.7994 33.8377 16.8499 33.7529 17.0156 33.8223C17.1814 33.8917 17.1526 33.9997 17.1093 34.1308C17.1021 34.1539 17.0949 34.1771 17.0805 34.2002C16.9219 34.6552 16.9147 35.2645 16.5832 35.5267C16.266 35.7812 15.7255 35.5807 15.2858 35.6038C15.1272 35.6038 14.9687 35.5961 14.8101 35.5961Z" fill="#F29C37"/>
<path d="M10.3286 35.6416C9.72132 35.6416 9.12251 35.6416 8.51527 35.6416C8.37189 35.6416 8.22852 35.6494 8.22852 35.4551C8.22852 35.2842 8.33816 35.2686 8.48153 35.2764C8.86106 35.2842 8.96227 35.0588 8.9707 34.7714C8.97914 33.5359 8.97914 32.2927 8.9707 31.0572C8.9707 30.7542 8.86106 30.5133 8.45623 30.5366C8.29598 30.5444 8.22851 30.4822 8.23695 30.3346C8.24538 30.187 8.34659 30.1714 8.46467 30.1714C9.07191 30.1714 9.67072 30.1714 10.278 30.1714C10.4382 30.1714 10.5057 30.2258 10.5057 30.3735C10.5057 30.5211 10.4129 30.5366 10.2864 30.5366C9.88157 30.5289 9.75506 30.7387 9.75506 31.0805C9.76349 32.3082 9.76349 33.5281 9.75506 34.7558C9.75506 35.0666 9.8647 35.1832 10.2189 35.1987C11.29 35.2453 12.1166 34.9268 12.572 33.9866C12.6395 33.8467 12.7154 33.7923 12.8925 33.8622C13.0612 33.9244 13.0443 34.0176 12.9937 34.142C12.825 34.5771 12.6563 35.0122 12.4961 35.4551C12.4286 35.6494 12.2852 35.6571 12.0997 35.6571C11.5009 35.6338 10.9105 35.6416 10.3286 35.6416Z" fill="#F29C37"/>
<path d="M6.87013 30.1714C7.04985 30.1714 7.22958 30.1714 7.4093 30.1714C7.48633 30.1714 7.53768 30.2026 7.54282 30.3426C7.54282 30.4671 7.51714 30.5294 7.42471 30.5371C7.15769 30.5449 7.10634 30.8173 7.10634 31.1519C7.10634 32.3424 7.10634 33.5329 7.10634 34.7234C7.10634 35.0424 7.14742 35.2992 7.41444 35.2837C7.4966 35.2759 7.53768 35.3303 7.53768 35.4704C7.53768 35.6027 7.4966 35.6571 7.41444 35.6571C7.04472 35.6571 6.68014 35.6571 6.31042 35.6571C6.23339 35.6571 6.17691 35.626 6.17177 35.486C6.16664 35.3303 6.21285 35.2759 6.31042 35.2837C6.54149 35.2992 6.61338 35.0658 6.61338 34.7857C6.61851 33.5329 6.61851 32.2723 6.61338 31.0196C6.61338 30.7317 6.51582 30.5527 6.32069 30.5449C6.23339 30.5371 6.17177 30.5216 6.17177 30.3582C6.17691 30.1559 6.2642 30.1792 6.3515 30.1792C6.52609 30.1714 6.70067 30.1714 6.87013 30.1714Z" fill="#F29C37"/>
</svg>
