<svg width="240" height="50" viewBox="0 0 240 50" fill="none" xmlns="http://www.w3.org/2000/svg">
<path d="M21.325 25.6672C18.1548 25.6672 15.0055 25.6876 11.8353 25.6468C11.1471 25.6468 10.9594 25.8305 10.9594 26.504C11.0428 31.974 10.8551 37.4235 11.0845 42.8934C11.1054 43.3424 11.1262 43.771 11.1888 44.22C11.3348 45.1589 11.8771 45.7508 12.8782 45.8937C13.7333 46.0365 14.6092 46.057 15.4852 46.0365C15.9232 46.0161 16.1318 46.159 16.1109 46.608C16.0901 47.2203 16.0901 47.8326 16.1109 48.4449C16.1318 48.9348 15.9023 49.0777 15.4227 49.0777C10.73 49.0572 6.03726 49.0572 1.34456 49.0777C0.823148 49.0777 0.63544 48.9348 0.593727 48.4041C0.447732 46.1182 0.426876 46.1182 2.72108 46.0161C4.61902 45.9345 5.30728 45.3018 5.49499 43.4445C5.5367 43.0158 5.5367 42.5668 5.5367 42.1178C5.5367 30.5452 5.5367 18.9727 5.5367 7.40014C5.5367 7.15522 5.5367 6.93071 5.5367 6.68579C5.45328 3.84878 4.63987 3.03237 1.76169 3.07319C0.823148 3.0936 0.510301 2.84868 0.552014 1.90981C0.63544 0.0729003 0.572871 0.0729004 2.42909 0.0729004C6.60038 0.0729004 10.7717 0.0933105 14.943 0.0524902C15.7772 0.0524902 16.1109 0.215771 16.0901 1.09341C16.0275 2.93032 16.0901 2.93032 14.2547 3.07319C12.0022 3.25688 11.2514 3.97124 11.1054 6.19594C10.7925 11.176 11.0428 16.1561 10.9594 21.1566C10.9594 21.7077 11.1679 21.8505 11.6893 21.8301C18.0923 21.8097 24.4743 21.8097 30.8773 21.8301C31.503 21.8301 31.6281 21.5852 31.6072 21.0545C31.5864 16.1357 31.6072 11.2168 31.5655 6.29799C31.5447 4.05288 30.5227 3.13442 28.2076 3.07319C26.6017 3.03237 26.6017 3.03237 26.6017 1.44038C26.6017 -0.0495606 26.3931 0.0933105 27.9991 0.0933105C32.3164 0.0933105 36.6128 0.113721 40.9301 0.0729004C41.7226 0.0729004 42.0146 0.215771 41.9937 1.073C41.9312 2.95073 41.9937 2.95073 40.1167 3.0936C38.031 3.23647 37.301 3.97124 37.1759 6.03266C37.1133 7.07358 37.1342 8.13491 37.1342 9.17582C37.1342 20.0748 37.1342 30.9534 37.1342 41.8525C37.1342 42.4035 37.1551 42.9342 37.1759 43.4853C37.2802 45.3222 37.8433 45.8733 39.7204 45.9957C39.783 45.9957 39.8664 45.9957 39.929 46.0161C40.5755 46.1182 41.4932 45.7304 41.806 46.1998C42.2649 46.8325 41.9103 47.7714 41.952 48.5878C41.9729 49.0164 41.7018 49.0777 41.3472 49.0777C36.6128 49.0777 31.8992 49.1593 27.1648 49.0164C25.9134 48.9756 26.8103 47.7102 26.6017 47.0366C26.4974 46.6897 26.3097 46.0365 27.1648 46.0365C27.9991 46.0365 28.8333 46.0978 29.6467 45.9141C31.0024 45.6283 31.4821 45.1385 31.5238 43.771C31.5655 42.5872 31.5655 41.4034 31.5655 40.1992C31.5655 35.6478 31.5447 31.0963 31.5864 26.5653C31.5864 25.8509 31.3987 25.6468 30.6687 25.6672C27.582 25.6876 24.4535 25.6672 21.325 25.6672Z" fill="#F29C37"/>
<path d="M75.0304 25.6672C71.902 25.6672 68.7735 25.6876 65.645 25.6468C64.915 25.6468 64.7065 25.8305 64.7273 26.5449C64.769 31.8311 64.7482 37.1377 64.7482 42.4239C64.7482 42.4852 64.7482 42.5668 64.7482 42.628C64.8316 45.4651 65.353 45.9753 68.2729 46.0161C68.5441 46.0161 68.8361 46.0365 69.1072 46.0161C69.6077 45.9753 69.7329 46.159 69.7746 46.6488C69.8997 49.0572 69.9206 49.0572 67.4804 49.0572C63.4134 49.0572 59.3464 49.0368 55.2794 49.0777C54.4868 49.0777 54.2991 48.8531 54.2991 48.098C54.3408 46.0978 54.2991 46.0978 56.4056 46.0161C58.3244 45.9345 58.9084 45.4446 59.1795 43.5669C59.2421 43.1383 59.3047 42.6893 59.3047 42.2607C59.3047 30.484 59.3047 18.7074 59.2838 6.95112C59.2838 6.64497 59.2421 6.33881 59.2004 6.03266C58.8875 3.6855 58.1993 3.0936 55.7382 3.05278C54.2991 3.03237 54.2991 3.03237 54.2991 1.66489C54.2991 1.39956 54.32 1.11382 54.2991 0.848486C54.2157 0.195361 54.5077 0.0524902 55.1334 0.0524902C59.7218 0.0729004 64.3102 0.0729004 68.8986 0.0524902C69.5869 0.0524902 69.7746 0.256592 69.7746 0.930126C69.7746 2.93032 69.7955 2.93032 67.8349 3.0936C65.8327 3.27729 65.1653 3.86919 64.8525 5.82856C64.7899 6.25717 64.7482 6.7062 64.7482 7.13481C64.7482 11.7067 64.769 16.299 64.7273 20.8708C64.7273 21.626 64.9359 21.8301 65.7076 21.8301C71.9228 21.7893 78.138 21.8097 84.3741 21.8301C85.1249 21.8301 85.3961 21.6872 85.3752 20.8912C85.3335 16.2786 85.3544 11.6659 85.3544 7.05317C85.3544 6.64497 85.3126 6.23676 85.2501 5.84897C85.0206 3.97124 84.2072 3.23647 82.2885 3.0936C80.3071 2.95073 80.3279 2.95073 80.3279 0.950536C80.3279 0.297412 80.4948 0.0729004 81.2039 0.0729004C85.7298 0.0933105 90.2348 0.113721 94.7606 0.0729004C95.5323 0.0729004 95.6783 0.358642 95.6574 1.01177C95.6366 2.95073 95.6574 2.95073 93.7386 3.0936C91.9033 3.23647 91.1941 3.86919 90.9439 5.62446C90.8604 6.23676 90.8187 6.84907 90.8187 7.44096C90.8187 18.9319 90.8187 30.4432 90.8187 41.9341C90.8187 42.6485 90.8813 43.3628 90.9856 44.0568C91.1524 45.261 91.5904 45.6896 92.8209 45.9141C93.1338 45.9753 93.4466 45.9549 93.7595 45.9957C94.3643 46.0774 95.3446 45.7304 95.5114 46.1794C95.8034 46.9142 95.6366 47.8326 95.6366 48.6899C95.6366 49.0777 95.282 49.0368 95.0109 49.0368C90.3599 49.0368 85.7089 49.0368 81.0371 49.0368C80.5782 49.0368 80.3697 48.9144 80.3488 48.4041C80.182 46.1182 80.1611 46.1386 82.5179 45.9753C84.3324 45.8529 85.3126 45.5263 85.2918 43.4853C85.2918 43.0771 85.3544 42.6689 85.3544 42.2607C85.3544 37.1377 85.3335 32.0148 85.3752 26.8918C85.3752 25.9121 85.2084 25.5652 84.103 25.5856C81.0788 25.7284 78.0546 25.6672 75.0304 25.6672Z" fill="#F29C37"/>
<path d="M47.5834 24.6465C47.5834 16.809 47.5834 8.97155 47.5834 1.15447C47.5834 0.113552 48.0213 -0.17219 49.0642 0.0931416C49.2936 0.154372 49.4396 0.256423 49.4396 0.480934C49.4396 0.685036 49.4396 0.889137 49.4396 1.09324C49.4396 16.7274 49.4396 32.3616 49.4396 47.9957C49.4396 48.5876 49.523 49.0979 48.5845 49.0775C47.7502 49.0775 47.5625 48.8326 47.5625 48.0366C47.5834 40.2603 47.5834 32.4432 47.5834 24.6465Z" fill="#F29C37"/>
<path d="M141.324 24.4715C143.282 24.4715 143.262 24.4715 143.947 26.2949C146.414 32.8434 148.9 39.3723 151.386 45.9208C151.778 46.9795 151.778 46.9795 150.701 46.9795C148.254 46.9795 148.254 46.9795 147.393 44.7248C146.884 43.3524 146.336 41.9995 145.846 40.6075C145.69 40.1565 145.494 39.9213 144.965 39.9213C142.46 39.9409 139.934 39.9605 137.429 39.9213C136.802 39.9213 136.665 40.2742 136.508 40.7055C135.843 42.5485 135.138 44.3719 134.512 46.2149C134.316 46.8031 134.022 47.0579 133.396 46.9991C132.887 46.9403 132.358 46.9991 131.83 46.9795C130.792 46.9795 130.792 46.9795 131.184 45.9404C132.202 43.2347 133.239 40.529 134.257 37.8234C135.784 33.8041 137.331 29.8044 138.779 25.7655C139.151 24.7068 139.66 24.2951 140.737 24.4911C140.933 24.4911 141.128 24.4715 141.324 24.4715ZM141.187 27.0399C140.228 30.6475 138.877 33.8237 137.683 37.0391C137.487 37.5489 137.761 37.5881 138.153 37.5881C140.208 37.5881 142.264 37.5881 144.3 37.5881C144.75 37.5881 144.868 37.4705 144.691 37.0195C143.556 33.8041 142.146 30.6475 141.187 27.0399Z" fill="#9C9984"/>
<path d="M219.516 46.9731C219.26 46.9731 218.986 46.934 218.73 46.9731C218.004 47.1098 217.709 46.719 217.474 46.0938C216.806 44.257 216.08 42.4593 215.432 40.6225C215.255 40.1145 215 39.9191 214.45 39.9386C211.996 39.9777 209.541 39.9777 207.087 39.9386C206.478 39.9386 206.223 40.1731 206.046 40.7007C205.398 42.5765 204.672 44.4133 204.024 46.2892C203.847 46.7777 203.631 47.0512 203.042 46.9926C202.492 46.934 201.923 46.934 201.373 46.9926C200.391 47.0903 200.391 46.6995 200.686 45.9374C202.041 42.4202 203.376 38.903 204.711 35.3858C205.987 32.0445 207.263 28.7226 208.5 25.3618C208.736 24.7365 209.011 24.4629 209.698 24.5411C210.719 24.6583 211.996 24.1307 212.742 24.756C213.429 25.3227 213.566 26.5342 213.92 27.4916C216.237 33.549 218.554 39.6065 220.89 45.6834C221.401 46.9926 221.381 46.9926 220.007 46.9926C219.83 46.9731 219.673 46.9731 219.516 46.9731ZM210.719 27.5502C209.737 30.7939 208.402 33.8812 207.244 37.0272C207.008 37.672 207.401 37.6525 207.833 37.6329C209.796 37.6329 211.76 37.6134 213.704 37.6329C214.293 37.6329 214.43 37.5157 214.214 36.9295C213.056 33.8226 211.721 30.7744 210.719 27.5502Z" fill="#9C9984"/>
<path d="M155.408 35.9137C155.408 32.5077 155.429 29.1212 155.387 25.7152C155.387 25.1314 155.514 24.8784 156.238 24.8005C159.624 24.4696 163.03 24.1582 166.394 24.8978C171.781 26.0656 174.016 31.1648 170.865 35.0379C169.353 36.8868 167.161 37.6458 164.755 38.0546C163.179 38.327 161.582 38.3076 159.986 38.2103C159.134 38.1519 158.985 38.4049 158.985 39.1055C159.027 41.4411 158.964 43.7571 159.027 46.0926C159.049 46.8517 158.772 47.0074 158.005 47.0074C155.408 46.9879 155.408 47.0074 155.408 44.6329C155.408 41.733 155.408 38.8136 155.408 35.9137ZM161.902 26.8246C161.263 26.7662 160.518 26.9219 159.773 26.9609C159.176 26.9803 158.985 27.1749 158.985 27.7199C159.006 30.1722 159.006 32.6245 158.985 35.0768C158.985 35.4855 159.07 35.6996 159.602 35.7774C161.497 36.0499 163.349 35.9915 165.159 35.4466C167.459 34.7654 168.672 33.1305 168.608 30.9702C168.544 29.0044 167.267 27.681 164.84 27.1166C163.903 26.883 162.945 26.7857 161.902 26.8246Z" fill="#9C9984"/>
<path d="M120.259 48.8877C117.772 48.8465 114.917 48.2493 112.469 46.2931C109.827 44.2133 108.603 41.3098 108.409 37.9121C107.904 29.387 113.848 24.3625 121.541 24.4448C123.231 24.4654 124.882 24.6714 126.514 25.1862C127.174 25.3921 127.291 25.6804 127.058 26.3599C126.533 27.9661 126.553 27.9661 125.018 27.5543C122.959 26.9983 120.861 26.9159 118.782 27.3895C114.431 28.3573 111.964 31.6315 111.847 36.553C111.711 42.2776 115.266 46.1489 120.686 46.2313C122.512 46.2519 124.299 46.1077 126.028 45.4488C126.514 45.2635 126.65 45.4282 126.747 45.8812C127.233 48.064 127.796 47.6521 125.484 48.3111C123.93 48.7641 122.357 48.8877 120.259 48.8877Z" fill="#9C9984"/>
<path d="M190.209 36.9147C190.209 33.9108 190.187 30.9069 190.231 27.903C190.252 27.157 189.992 26.9607 189.187 26.9803C187.014 27.0196 184.841 26.9803 182.668 26.9999C181.994 27.0196 181.69 26.8821 181.712 26.195C181.777 24.0549 181.451 24.4869 183.559 24.4672C189.427 24.4476 195.294 24.4869 201.162 24.4476C202.075 24.4476 202.531 24.6047 202.357 25.5078C202.314 25.763 202.314 26.0379 202.357 26.2931C202.422 26.8625 202.14 27.0196 201.553 26.9999C199.38 26.9803 197.207 27.0392 195.033 26.9606C194.012 26.9214 193.86 27.2355 193.86 28.0601C193.903 34.0286 193.86 39.9972 193.903 45.9853C193.903 46.7903 193.686 47.0259 192.773 47.0063C190.209 46.967 190.209 47.0063 190.209 44.7288C190.209 42.1372 190.209 39.526 190.209 36.9147Z" fill="#9C9984"/>
<path d="M228.572 34.5375C228.572 37.5421 228.593 40.5466 228.551 43.5512C228.53 44.3367 228.824 44.533 229.622 44.533C232.731 44.4938 235.861 44.533 238.97 44.4938C239.726 44.4938 240.02 44.6312 239.999 45.3971C239.957 46.9877 239.999 46.9877 238.276 46.9877C234.18 46.9877 230.084 46.9681 225.988 47.0074C225.148 47.0074 224.938 46.7717 224.959 46.0255C224.98 39.1327 224.98 32.24 224.959 25.3668C224.959 24.6206 225.19 24.4438 225.967 24.4438C228.572 24.4635 228.593 24.4438 228.593 26.8789C228.572 29.4514 228.572 32.0043 228.572 34.5375Z" fill="#9C9984"/>
<path d="M179.809 35.7462C179.809 39.1596 179.787 42.5926 179.83 46.006C179.83 46.7318 179.679 47.0261 178.771 47.0065C176.091 46.9672 176.091 47.0065 176.091 44.5543C176.091 38.2376 176.113 31.9209 176.07 25.6042C176.07 24.7607 176.221 24.4075 177.28 24.4468C179.809 24.5252 179.809 24.4664 179.809 26.742C179.809 29.7434 179.809 32.7448 179.809 35.7462Z" fill="#9C9984"/>
<path d="M170.427 7.92806C169.437 7.92806 168.468 7.94936 167.478 7.92806C166.994 7.92806 166.783 8.0985 166.783 8.60981C166.804 10.0585 166.804 11.5072 166.804 12.956C166.804 13.659 167.12 13.9999 167.815 14.0212C168.173 14.0425 168.657 13.8721 168.636 14.5112C168.636 15.2355 168.089 15.0012 167.71 15.0225C166.383 15.0438 165.035 15.0225 163.708 15.0225C163.371 15.0225 162.971 15.1077 162.929 14.5751C162.886 14.0638 163.202 13.9999 163.603 14.0212C164.508 14.0638 164.719 13.5738 164.719 12.7642C164.698 9.33416 164.698 5.90412 164.719 2.45277C164.719 1.53667 164.445 1.02536 163.476 1.02536C163.181 1.02536 162.907 1.00405 162.907 0.599266C162.907 0.194478 163.076 0.0240405 163.476 0.0240405C165.014 0.0240405 166.572 0.0240405 168.11 0.0240405C168.447 0.0240405 168.615 0.173173 168.615 0.535352C168.615 0.89753 168.447 1.04666 168.11 1.02536C166.951 1.00405 166.72 1.70711 166.762 2.68712C166.804 3.75235 166.804 4.81758 166.762 5.88281C166.741 6.47934 166.972 6.69239 167.562 6.67109C169.5 6.64978 171.417 6.64978 173.354 6.67109C174.007 6.69239 174.197 6.43673 174.176 5.7976C174.134 4.66845 174.134 3.5393 174.176 2.41016C174.197 1.53667 173.86 1.04666 172.975 1.02536C172.554 1.02536 172.28 0.94014 172.343 0.428829C172.385 -0.061178 172.743 0.00273591 173.038 0.00273591C174.45 0.00273591 175.84 0.00273591 177.251 0.00273591C177.567 0.00273591 177.904 -0.0398733 177.946 0.428829C177.988 0.94014 177.693 0.982749 177.293 1.00405C176.493 1.02536 176.219 1.51536 176.219 2.26103C176.24 5.75499 176.24 9.27025 176.219 12.7642C176.219 13.5312 176.471 13.9999 177.293 13.9573C177.693 13.936 177.967 14.0425 177.946 14.5325C177.904 15.0225 177.567 14.9586 177.251 14.9586C175.84 14.9586 174.45 14.9586 173.038 14.9586C172.659 14.9586 172.322 14.9586 172.343 14.426C172.364 13.9573 172.638 13.936 172.996 13.9573C173.923 14.0212 174.218 13.5312 174.197 12.6577C174.155 11.3794 174.155 10.1011 174.197 8.84416C174.218 8.1198 174.028 7.82154 173.27 7.86414C172.322 7.99197 171.374 7.92806 170.427 7.92806Z" fill="#9C9984"/>
<path d="M115.973 6.68412C116.925 6.68412 117.876 6.6628 118.828 6.68412C119.399 6.70545 119.652 6.51355 119.631 5.89522C119.589 4.70121 119.61 3.48587 119.631 2.29186C119.652 1.50296 119.272 1.11917 118.511 1.03388C118.172 1.01256 117.77 1.09785 117.77 0.522163C117.77 -0.117487 118.236 0.0104433 118.595 0.0104433C119.97 0.0104433 121.344 0.0104433 122.719 0.0104433C123.015 0.0104433 123.374 -0.0535217 123.417 0.436876C123.459 0.948596 123.205 1.01256 122.782 1.01256C121.915 1.01256 121.661 1.5456 121.661 2.3345C121.683 5.80994 121.661 9.28537 121.661 12.7608C121.661 13.571 121.936 14.0614 122.825 13.9975C123.205 13.9761 123.417 14.0827 123.417 14.5305C123.417 14.9996 123.121 15.0209 122.782 15.0209C121.302 15.0209 119.822 15.0209 118.341 15.0209C118.024 15.0209 117.792 14.9569 117.77 14.5731C117.749 14.168 117.918 13.9761 118.32 14.0188C119.483 14.1254 119.653 13.4431 119.61 12.4836C119.568 11.2043 119.589 9.92502 119.61 8.66704C119.631 8.11267 119.42 7.92078 118.87 7.92078C116.903 7.9421 114.916 7.9421 112.949 7.92078C112.314 7.92078 112.166 8.17664 112.188 8.75233C112.209 10.0956 112.23 11.4389 112.188 12.7821C112.166 13.635 112.484 14.0614 113.351 14.0188C113.731 13.9975 114.07 14.0401 114.027 14.5731C114.006 15.0422 113.71 15.0422 113.372 15.0422C111.934 15.0422 110.475 15.0422 109.037 15.0422C108.719 15.0422 108.402 15.0635 108.381 14.5731C108.36 14.0401 108.656 13.9975 109.058 14.0188C109.925 14.0614 110.136 13.5284 110.136 12.8034C110.136 9.32801 110.136 5.85258 110.136 2.37715C110.136 1.52428 109.84 0.99124 108.91 1.03388C108.487 1.0552 108.36 0.86331 108.381 0.458198C108.402 0.0530866 108.656 0.0317649 108.952 0.0317649C110.475 0.0317649 111.976 0.0317649 113.499 0.0317649C113.837 0.0317649 114.027 0.159695 114.027 0.522163C114.027 0.884631 113.879 1.03388 113.52 1.03388C112.357 1.01256 112.124 1.71618 112.188 2.71829C112.23 3.78438 112.23 4.85046 112.188 5.91654C112.166 6.53487 112.399 6.72677 112.991 6.70544C114.006 6.6628 115 6.68412 115.973 6.68412Z" fill="#9C9984"/>
<path d="M230.784 14.977C229.111 14.977 227.437 14.977 225.744 14.977C225.401 14.977 224.958 15.105 224.978 14.465C224.978 13.9103 225.341 13.9743 225.663 13.9743C226.329 13.953 226.651 13.569 226.651 12.9077C226.651 9.30226 226.651 5.67553 226.651 2.07013C226.651 1.25945 226.167 1.04611 225.542 1.00344C225.22 0.982109 224.958 0.982109 224.958 0.512768C224.958 -0.0419089 225.3 0.000758531 225.643 0.000758531C228.97 0.000758531 232.296 0.000758531 235.603 0.000758531C236.047 0.000758531 236.268 0.192762 236.41 0.619436C236.712 1.55812 237.014 2.4968 237.337 3.43549C237.478 3.81949 237.478 4.0755 237.055 4.2675C236.571 4.48084 236.47 4.1395 236.329 3.81949C235.603 2.02746 234.293 1.30212 232.478 1.38745C231.43 1.43012 230.401 1.40878 229.353 1.38745C228.829 1.36612 228.546 1.49412 228.567 2.13413C228.607 3.41415 228.567 4.69418 228.587 5.95287C228.587 6.2302 228.546 6.50754 228.889 6.63554C230.462 7.25422 232.075 6.31554 232.296 4.58751C232.357 4.1395 232.478 3.96883 232.901 3.99016C233.325 4.0115 233.385 4.24617 233.385 4.60884C233.385 6.37954 233.385 8.15024 233.385 9.92094C233.385 10.2623 233.365 10.5396 232.922 10.5609C232.498 10.5823 232.357 10.3903 232.296 9.94227C232.055 8.02224 230.744 7.21155 228.909 7.78756C228.607 7.89423 228.567 8.08624 228.567 8.34224C228.567 9.8996 228.567 11.457 228.567 13.0143C228.567 13.4837 228.808 13.761 229.252 13.761C230.462 13.761 231.671 13.7823 232.881 13.697C234.756 13.5477 236.026 12.4383 236.833 10.689C237.014 10.2836 237.115 9.79293 237.76 10.1129C238.426 10.4329 237.982 10.817 237.881 11.1583C237.579 12.161 237.196 13.1423 236.914 14.1663C236.732 14.8277 236.45 15.0624 235.785 15.041C234.151 14.9344 232.478 14.977 230.784 14.977Z" fill="#9C9984"/>
<path d="M186.431 15.0423C182.617 15.0423 179.794 11.8057 179.831 7.49005C179.869 3.2367 182.766 0 186.562 0C190.245 0 192.993 3.1952 192.993 7.49005C193.011 11.9094 190.282 15.0423 186.431 15.0423ZM181.981 7.78053C181.888 9.06691 182.131 10.3533 182.785 11.5359C183.645 13.092 184.879 13.922 186.562 13.8805C188.244 13.8597 189.366 12.8846 190.095 11.3284C191.086 9.21214 191.198 6.9921 190.581 4.73056C189.927 2.34453 188.618 1.20339 186.636 1.18264C184.636 1.16189 183.065 2.44827 182.355 4.64757C182.037 5.62273 181.944 6.63938 181.981 7.78053Z" fill="#9C9984"/>
<path d="M217.753 15.0415C216.634 15.0621 215.495 14.7111 214.496 13.9471C214.076 13.6373 213.776 13.4308 213.596 14.1536C213.516 14.484 213.436 14.835 212.977 14.7937C212.477 14.7524 212.597 14.2981 212.537 14.009C212.277 12.77 212.058 11.5311 211.858 10.2714C211.798 9.9617 211.658 9.61066 212.177 9.44546C212.657 9.30091 212.817 9.52806 212.977 9.9204C213.776 11.7995 215.035 13.183 217.053 13.6786C218.232 13.9677 219.291 13.6993 220.251 12.9559C221.629 11.8821 221.51 10.1269 220.011 9.23896C218.932 8.59883 217.713 8.37168 216.534 7.99999C215.615 7.7109 214.675 7.44245 213.836 6.92621C211.498 5.4601 211.438 2.44526 213.756 0.937845C215.655 -0.301128 217.653 -0.259829 219.651 0.751999C220.051 0.958495 220.43 1.39214 220.65 0.566153C220.71 0.297709 220.95 0.215111 221.21 0.25641C221.49 0.297709 221.569 0.504204 221.629 0.751999C221.889 1.88772 222.149 3.02345 222.429 4.13853C222.509 4.46892 222.649 4.77866 222.149 4.92321C221.749 5.04711 221.569 4.96451 221.37 4.59282C220.81 3.56034 220.111 2.65176 219.132 2.01162C217.913 1.20629 216.614 0.979144 215.235 1.55733C214.476 1.88772 213.936 2.46591 213.876 3.31254C213.816 4.17982 214.356 4.77866 215.075 5.171C216.114 5.72854 217.253 5.99699 218.372 6.34803C219.271 6.63712 220.151 6.92622 220.97 7.35986C223.488 8.70208 223.808 11.8615 221.609 13.7199C220.49 14.6904 219.231 15.0621 217.753 15.0415Z" fill="#9C9984"/>
<path d="M196.741 6.22761C196.741 4.94874 196.72 3.64891 196.741 2.37004C196.762 1.53144 196.402 1.02828 195.534 0.986349C195.132 0.965384 194.835 0.902489 194.878 0.420293C194.92 -0.0409376 195.259 0.000992427 195.577 0.000992427C196.995 0.000992427 198.393 0.000992427 199.811 0.000992427C200.171 0.000992427 200.531 -0.0409376 200.531 0.504153C200.531 0.965384 200.256 0.986349 199.917 1.00731C199.091 1.04924 198.753 1.48951 198.774 2.30715C198.795 4.88585 198.753 7.46455 198.816 10.0432C198.88 12.2446 200.425 13.6073 202.67 13.6073C204.957 13.6073 206.587 12.2446 206.693 10.0432C206.799 7.50648 206.757 4.96971 206.757 2.41197C206.757 1.6153 206.439 1.04924 205.55 1.00731C205.168 0.986349 204.957 0.881524 204.978 0.462223C204.999 0.000992393 205.338 0.0219575 205.656 0.0219575C206.862 0.0219575 208.048 0.0219575 209.255 0.0219575C209.594 0.0219575 209.89 0.0638876 209.912 0.504153C209.954 0.944419 209.7 1.00731 209.34 1.04924C208.323 1.1331 208.133 1.84592 208.133 2.68452C208.133 4.88585 208.133 7.06621 208.133 9.26754C208.133 11.9511 207.011 13.7541 204.851 14.5927C202.458 15.5151 199.706 14.991 197.99 13.2719C197.101 12.3704 196.741 11.2592 196.72 10.0432C196.741 8.74341 196.762 7.48551 196.741 6.22761Z" fill="#9C9984"/>
<path d="M148.991 14.875C147.607 14.875 146.224 14.875 144.84 14.875C144.524 14.875 144.148 14.9808 144.129 14.4309C144.109 13.9022 144.405 13.8599 144.761 13.8811C145.591 13.9022 145.868 13.3947 145.868 12.6122C145.868 9.16513 145.868 5.71805 145.868 2.29211C145.868 1.4885 145.532 1.02325 144.741 1.0021C144.386 1.0021 144.069 0.980955 144.109 0.452261C144.148 -0.0975799 144.524 0.00815885 144.84 0.00815885C146.164 0.00815885 147.469 0.00815885 148.793 0.00815885C149.129 0.00815885 149.485 -0.0552844 149.524 0.473409C149.564 1.02325 149.228 1.0021 148.892 1.0021C148.121 1.02325 147.785 1.42506 147.805 2.27097C147.824 5.71805 147.824 9.16513 147.805 12.5911C147.805 13.437 148.121 13.6273 148.852 13.6696C151.323 13.7753 153.24 12.9294 154.307 10.4128C154.445 10.0533 154.584 9.82071 155.038 10.011C155.493 10.2014 155.414 10.4974 155.295 10.8569C155.276 10.9204 155.256 10.9838 155.216 11.0473C154.781 12.295 154.762 13.9657 153.853 14.6847C152.983 15.3826 151.501 14.8327 150.295 14.8962C149.86 14.8962 149.425 14.875 148.991 14.875Z" fill="#9C9984"/>
<path d="M136.701 14.9997C135.036 14.9997 133.394 14.9997 131.729 14.9997C131.336 14.9997 130.942 15.021 130.942 14.4884C130.942 14.0196 131.243 13.977 131.636 13.9983C132.677 14.0196 132.954 13.4018 132.978 12.6134C133.001 9.22569 133.001 5.81666 132.978 2.42893C132.978 1.59798 132.677 0.937484 131.567 1.0014C131.127 1.02271 130.942 0.852258 130.966 0.447435C130.989 0.0426129 131.266 0 131.59 0C133.255 0 134.897 0 136.562 0C137.002 0 137.187 0.149145 137.187 0.553968C137.187 0.95879 136.932 1.0014 136.585 1.0014C135.475 0.980096 135.128 1.55537 135.128 2.49285C135.151 5.85927 135.151 9.20438 135.128 12.5708C135.128 13.4231 135.429 13.7427 136.4 13.7853C139.337 13.9131 141.604 13.0395 142.853 10.4615C143.038 10.0779 143.246 9.9288 143.731 10.1206C144.194 10.291 144.148 10.5467 144.009 10.8876C143.546 12.0808 143.084 13.2739 142.644 14.4884C142.459 15.021 142.066 15.0423 141.558 15.0423C139.916 14.9784 138.297 14.9997 136.701 14.9997Z" fill="#9C9984"/>
<path d="M127.218 0C127.71 0 128.203 0 128.696 0C128.907 0 129.048 0.0853466 129.062 0.469407C129.062 0.810793 128.992 0.981487 128.738 1.00282C128.006 1.02416 127.865 1.77094 127.865 2.68842C127.865 5.95293 127.865 9.21744 127.865 12.4819C127.865 13.3568 127.978 14.0609 128.71 14.0182C128.935 13.9969 129.048 14.1462 129.048 14.5303C129.048 14.893 128.935 15.0423 128.71 15.0423C127.696 15.0423 126.697 15.0423 125.683 15.0423C125.472 15.0423 125.317 14.957 125.303 14.5729C125.288 14.1462 125.415 13.9969 125.683 14.0182C126.316 14.0609 126.514 13.4208 126.514 12.6526C126.528 9.21744 126.528 5.7609 126.514 2.3257C126.514 1.53624 126.246 1.0455 125.711 1.02416C125.472 1.00282 125.303 0.96015 125.303 0.51208C125.317 -0.0426733 125.556 0.0213367 125.795 0.0213367C126.274 4.76912e-09 126.753 0 127.218 0Z" fill="#9C9984"/>
</svg>
