<svg width="57" height="80" viewBox="0 0 57 80" fill="none" xmlns="http://www.w3.org/2000/svg">
<path d="M9.29442 37.125C14.4902 37.125 19.5904 37.125 24.7264 37.125C24.7503 36.9817 24.7861 36.8623 24.7742 36.731C24.7025 35.0591 25.3475 33.6738 26.4106 32.4318C27.1153 31.6078 27.8916 30.8197 28.4291 29.9001C28.9666 28.9567 29.5161 27.8939 29.5877 26.843C29.7549 24.5381 29.6355 22.2214 29.6355 19.8449C27.9991 19.8807 26.4225 19.7255 25.3236 18.3522C23.1378 19.4747 21.0117 19.5941 18.8259 18.388C19.2201 17.6237 19.5904 16.9191 19.877 16.3579C20.7729 16.4892 21.609 16.7042 22.445 16.7042C23.8425 16.7042 24.5353 15.9399 24.5353 14.5427C24.5353 12.6081 24.5353 10.6734 24.5353 8.73883C24.5472 6.29072 22.1703 4.32028 19.7815 4.77408C19.3396 4.85767 19.1723 5.02486 19.1843 5.47866C19.2082 6.7684 19.1962 8.05814 19.1962 9.34788C19.1962 9.59866 19.1723 9.8375 19.1604 10.0883C18.3959 9.47924 17.6435 8.91796 16.9387 8.29698C16.7835 8.16562 16.7237 7.85512 16.7118 7.61628C16.6879 6.6848 16.7357 5.75332 16.676 4.83379C16.6521 4.49941 16.4729 4.08144 16.234 3.85454C14.7291 2.43344 12.7344 2.21848 10.9666 3.29327C10.7397 3.43657 10.5366 3.79483 10.5247 4.0695C10.4769 5.38312 10.5008 6.69675 10.5008 8.03425C9.67663 8.29698 8.90026 8.54776 8.01638 8.83437C8.01638 7.17443 7.96861 5.61002 8.04027 4.04562C8.06416 3.34104 7.78944 2.92306 7.18029 2.80364C6.48752 2.67228 5.74698 2.54092 5.0781 2.66034C4.01506 2.85141 3.69256 3.40074 3.69256 4.48747C3.69256 6.35043 3.68062 8.20144 3.70451 10.0644C3.70451 10.4943 3.59701 10.769 3.17896 10.972C2.54591 11.2825 1.93675 11.6766 1.20815 12.0945C1.20815 11.1631 1.20815 10.351 1.20815 9.53895C1.20815 7.91483 1.20815 6.29072 1.20815 4.6666C1.20815 1.57361 3.62089 -0.468474 6.67863 0.0928017C7.46695 0.236106 8.20749 0.666019 8.99581 0.916801C9.29442 1.01234 9.68858 1.09593 9.95136 0.976511C12.9016 -0.420706 15.5293 -0.0743867 17.9898 2.06324C18.2287 2.26625 18.6229 2.45732 18.9096 2.40956C22.1703 1.83634 24.3084 2.76782 26.0761 5.55031C26.1597 5.68167 26.2433 5.80109 26.3508 5.95634C26.5181 5.90857 26.6614 5.8608 26.8047 5.81303C30.2088 4.60689 33.4099 6.85199 33.4218 10.4465C33.4218 12.1184 33.4338 13.8023 33.4338 15.4741C33.4338 16.6086 33.1591 17.6595 32.4424 18.5791C32.2752 18.794 32.2155 19.1403 32.2035 19.427C32.1796 21.4093 32.1557 23.4036 32.2035 25.386C32.2632 28.061 31.4032 30.4017 29.6833 32.4318C29.1338 33.0767 28.5486 33.7096 28.0469 34.3903C27.7483 34.7964 27.4855 35.2621 27.3422 35.7517C27.0197 36.8146 27.2108 37.1967 28.1066 37.8296C29.2174 38.6178 29.7908 39.7165 29.7072 41.0779C29.6594 41.8421 29.8744 42.284 30.6149 42.6064C32.1318 43.2632 33.5771 44.0514 35.0701 44.7441C35.3568 44.8754 35.7629 44.8993 36.0854 44.8277C38.6415 44.1589 40.9228 45.1023 42.1889 47.3952C42.9772 48.8163 43.7775 50.2255 44.5539 51.6585C45.605 53.5692 45.3661 55.7427 43.885 57.319C43.4908 57.737 43.4431 58.0117 43.7536 58.4893C44.3031 59.385 43.9328 60.3284 43.025 60.4837C42.38 60.5911 41.9022 60.3165 41.6275 59.7433C41.3767 59.2178 41.09 59.0864 40.4928 59.2536C38.1876 59.9224 35.8585 58.9312 34.664 56.8533C33.8638 55.4441 33.0874 54.0111 32.2871 52.6019C31.1524 50.5718 31.3077 48.661 32.753 46.8459C32.8127 46.7623 32.8604 46.6787 32.9679 46.5234C31.881 45.986 30.8299 45.4725 29.7191 44.9351C29.4444 46.3801 28.7277 47.4071 27.4616 48.052C27.2944 48.1356 27.2347 48.5775 27.2347 48.8641C27.2228 55.886 27.2228 62.896 27.2228 69.9179C27.2228 70.2045 27.2466 70.4911 27.1989 70.7657C27.0914 71.4345 26.6853 71.8405 25.9925 71.8525C25.2997 71.8644 24.8817 71.4703 24.7622 70.8016C24.7145 70.5508 24.7384 70.2881 24.7384 70.0253C24.7384 63.1348 24.7384 56.2562 24.7384 49.3656C24.7384 49.0551 24.7384 48.7566 24.7384 48.3983C19.5784 48.3983 14.4902 48.3983 9.25859 48.3983C9.25859 48.6849 9.25859 48.9835 9.25859 49.282C9.25859 56.1726 9.25859 63.0512 9.25859 69.9418C9.25859 70.2045 9.27053 70.4553 9.24664 70.718C9.17498 71.3987 8.67332 71.8644 8.01638 71.8644C7.37139 71.8644 6.85779 71.3987 6.78613 70.706C6.76224 70.4553 6.77418 70.1925 6.77418 69.9298C6.77418 62.9915 6.76224 56.0532 6.78613 49.1148C6.78613 48.5536 6.66668 48.2789 6.08141 48.0639C4.58838 47.5146 3.76423 46.3682 3.69256 44.7679C3.63284 43.4304 3.63284 42.081 3.69256 40.7435C3.76423 39.1432 4.61227 38.0446 6.08141 37.4236C6.90557 37.0773 6.98918 36.8384 6.47558 36.0861C5.72309 34.9755 4.93476 33.8888 4.23005 32.7543C1.99647 29.0761 0.40789 25.1591 0.0376183 20.8242C-0.0459916 19.7972 0.0376212 18.7701 0.0256769 17.7312C0.0256769 16.6922 0.467615 15.8324 1.27982 15.2711C2.80869 14.2322 4.32561 13.1216 5.99781 12.3692C8.05222 11.4377 10.238 10.7809 12.4119 10.1122C14.1796 9.56283 15.9832 10.2435 17.0224 11.6527C18.0137 13.0021 18.1451 14.8412 17.0343 16.3579C16.0907 17.6595 14.8604 18.7463 13.7496 19.9166C13.5466 20.1435 13.3077 20.3345 13.1882 20.442C14.1438 21.7437 15.2188 22.914 15.9593 24.2635C16.5924 25.4457 16.9149 26.8071 17.2612 28.1208C17.4762 28.9567 17.0224 29.5777 16.3177 29.721C15.601 29.8643 14.9799 29.4105 14.8366 28.5984C14.1796 24.8009 12.1133 22.2214 8.38666 21.0511C7.58639 20.8003 7.24001 20.1315 7.46695 19.4389C7.69389 18.7701 8.31499 18.4716 9.09137 18.6746C9.11526 18.6865 9.13915 18.6865 9.16304 18.6985C10.4172 19.4747 11.3369 18.9373 12.1969 17.97C12.7702 17.3371 13.451 16.8116 14.0363 16.2026C14.4185 15.7966 14.7768 15.3308 15.0516 14.8532C15.386 14.2799 15.4099 13.6709 14.9799 13.1096C14.5499 12.5483 13.9288 12.2737 13.2719 12.4528C9.90358 13.3604 6.60696 14.4471 3.68062 16.4414C2.7848 17.0505 2.41453 17.8148 2.42647 18.9015C2.4623 23.1768 3.84784 27.046 5.9142 30.7122C6.5353 31.8108 7.24001 32.8617 7.95666 33.9007C8.69721 34.8799 9.49747 35.7756 9.29442 37.125ZM27.175 41.4958C27.3422 40.1703 26.9122 39.6448 25.6939 39.6448C19.6859 39.6329 13.6899 39.6329 7.68195 39.6448C6.66668 39.6448 6.18891 40.1464 6.18891 41.1853C6.18891 42.2124 6.20086 43.2513 6.2128 44.2783C6.22475 45.3889 6.65474 45.8308 7.76556 45.8308C13.7496 45.8308 19.7218 45.8308 25.7058 45.8308C26.9122 45.8308 27.3422 45.3053 27.1989 43.9798C26.518 43.9798 25.8372 43.9798 25.1445 43.9798C24.177 43.9678 23.5798 43.514 23.5678 42.7736C23.5439 41.9855 24.1292 41.5197 25.1564 41.5078C25.8014 41.4958 26.4703 41.4958 27.175 41.4958ZM42.1053 55.5994C42.7981 54.7157 42.9414 53.8678 42.4756 52.996C41.6275 51.4077 40.7556 49.8314 39.8359 48.2789C39.2626 47.3116 38.1995 46.9295 37.0648 47.228C37.3993 48.1595 38.5579 49.2223 37.0887 49.9986C35.6673 50.7509 35.4285 49.1865 34.7954 48.47C34.0549 49.1746 33.816 50.0463 34.2699 50.93C35.1537 52.6139 36.0735 54.2857 37.0648 55.9099C37.6382 56.8652 38.8923 57.1996 39.8598 56.7577C39.6209 56.3517 39.382 55.9696 39.167 55.5635C38.8206 54.9067 38.9998 54.238 39.5731 53.8678C40.1345 53.5215 40.8392 53.6648 41.2573 54.2619C41.5439 54.6559 41.7828 55.0739 42.1053 55.5994ZM27.0436 12.3692C27.0555 13.5037 27.0078 14.6382 27.0675 15.7727C27.0914 16.2026 27.2586 16.7758 27.5691 16.9908C28.3694 17.564 29.3608 17.5162 30.2327 17.1819C30.9613 16.9072 30.9613 16.131 30.9733 15.4503C30.9733 13.7545 30.9733 12.0468 30.9613 10.351C30.9494 8.5597 29.2533 7.47298 27.6169 8.17756C27.2108 8.35669 27.0316 8.59553 27.0436 9.04933C27.0555 10.1599 27.0436 11.2586 27.0436 12.3692Z" fill="#DC6741"/>
<path d="M50.9441 79.2684C49.033 79.1968 47.5042 78.4325 46.5247 76.7486C45.6409 75.232 44.7928 73.7034 43.9567 72.1629C42.8937 70.1925 43.2281 67.9951 44.8406 66.4188C45.2109 66.0486 45.2586 65.7739 44.972 65.3798C44.8764 65.2604 44.8167 65.1171 44.757 64.9738C44.4703 64.2931 44.6853 63.6244 45.2825 63.3139C45.8917 62.9914 46.6203 63.1586 46.9308 63.8274C47.2772 64.6036 47.6833 64.735 48.5194 64.5678C50.7291 64.114 52.7477 65.1052 53.8824 67.0637C54.7305 68.5325 55.5665 70.0133 56.3788 71.518C57.6807 73.9184 56.8804 76.7009 54.5035 78.0623C53.3927 78.7071 52.2819 79.3162 50.9441 79.2684ZM46.477 68.4012C45.7603 69.1416 45.605 69.9895 46.1067 70.9329C46.9308 72.4734 47.7789 74.0139 48.6747 75.5186C49.3675 76.6889 50.753 77.1188 51.9713 76.5815C52.4372 76.3784 52.903 76.1277 53.333 75.8649C54.4438 75.1723 54.8021 73.9423 54.181 72.7719C53.3569 71.2314 52.5088 69.6909 51.6249 68.1743C51.0158 67.1353 49.8333 66.7173 48.7822 67.1114C49.2241 68.3534 49.1405 68.9266 48.4717 69.2849C47.8506 69.6312 47.3131 69.3923 46.477 68.4012Z" fill="#DC6741"/>
<path d="M53.7151 57.0802C53.5718 57.2593 53.3687 57.7012 53.0223 57.9281C52.2579 58.4416 51.4338 58.8596 50.6096 59.2895C49.9288 59.6358 49.2718 59.4567 48.9255 58.8715C48.5552 58.2625 48.7343 57.5459 49.3913 57.1399C50.2274 56.6384 51.0754 56.1607 51.9593 55.7308C52.7715 55.3367 53.6912 55.9218 53.7151 57.0802Z" fill="#DC6741"/>
<path d="M39.406 64.8664C39.1432 65.2725 38.9879 65.6427 38.7132 65.8815C38.0324 66.4667 37.3038 67.0041 36.5632 67.5295C35.8824 68.0191 35.1538 67.9117 34.7238 67.3145C34.3297 66.7533 34.4491 66.0487 35.0821 65.5471C35.7869 64.9858 36.4796 64.3888 37.256 63.9469C37.6143 63.7439 38.2115 63.72 38.6057 63.8633C38.9401 63.9827 39.1193 64.4843 39.406 64.8664Z" fill="#DC6741"/>
<path d="M35.0462 63.2064C34.664 63.1945 34.2698 63.2064 33.8996 63.1467C33.2426 63.0512 32.7768 62.478 32.8485 61.8451C32.9201 61.1763 33.3023 60.7464 33.9832 60.7106C34.6759 60.6747 35.3687 60.6986 36.0615 60.7583C36.802 60.818 37.2559 61.3674 37.232 62.0361C37.2081 62.7407 36.6945 63.2064 35.8942 63.2184C35.6076 63.2303 35.3329 63.2184 35.0462 63.2184C35.0462 63.2184 35.0462 63.2184 35.0462 63.2064Z" fill="#DC6741"/>
<path d="M51.5413 60.2926C52.1863 60.4359 52.9507 60.5673 53.6913 60.7942C54.3124 60.9852 54.5752 61.4988 54.4677 62.1317C54.3482 62.8004 53.9063 63.2184 53.2255 63.1468C52.461 63.0632 51.6966 62.9079 50.968 62.681C50.3589 62.4899 50.0841 61.9764 50.1916 61.3435C50.3111 60.6748 50.7649 60.3404 51.5413 60.2926Z" fill="#DC6741"/>
<path d="M48.5552 56.1009C47.4922 56.089 46.9189 55.3725 47.1219 54.5723C47.2772 53.9514 47.4922 53.3423 47.743 52.7572C48.0177 52.1362 48.5552 51.9212 49.2122 52.0765C49.7974 52.2198 50.2155 52.8527 50.0602 53.4379C49.8811 54.1305 49.678 54.8351 49.3555 55.468C49.1763 55.8024 48.7224 55.9815 48.5552 56.1009Z" fill="#DC6741"/>
<path d="M41.4842 68.043C41.4006 68.5207 41.3289 69.1059 41.1856 69.6791C41.0184 70.3359 40.4092 70.7061 39.7762 70.5986C39.1431 70.4792 38.7012 69.9179 38.7609 69.2611C38.8206 68.676 38.9162 68.0908 39.0595 67.5176C39.2267 66.813 39.8359 66.4547 40.5167 66.5742C41.1378 66.6816 41.52 67.231 41.4842 68.043Z" fill="#DC6741"/>
</svg>
