<svg width="50" height="79" viewBox="0 0 50 79" fill="none" xmlns="http://www.w3.org/2000/svg">
<path d="M32.5348 66.5956C32.3873 68.3129 32.2292 70.0302 32.1028 71.737C32.0079 73.0645 31.8182 74.3604 31.1017 75.5193C29.8266 77.5843 27.9826 78.8486 25.5378 78.9012C21.7443 78.9855 17.9508 79.0171 14.1572 78.8907C10.722 78.7854 8.04545 76.0777 7.72932 72.6431C7.41319 69.1663 7.12868 65.679 6.8547 62.2023C6.82309 61.823 6.6861 61.686 6.32782 61.5596C5.25299 61.1909 4.12547 60.8853 3.16655 60.3059C1.05903 59.0205 0.026344 57.0293 0.0158064 54.5745C-0.00526879 47.1469 -0.00526879 39.7193 0.0158064 32.2917C0.026344 29.1626 2.03902 26.5919 5.02116 25.8544C5.61127 25.7069 6.23298 25.6542 6.84416 25.6542C15.5166 25.6437 24.1996 25.6437 32.872 25.6437C36.8974 25.6437 39.7109 28.4883 39.7214 32.534C39.7214 33.1977 39.7425 33.872 39.7109 34.5357C39.6898 34.894 39.8268 35.0625 40.1429 35.21C42.8616 36.4427 45.5698 37.6859 48.2885 38.9291C49.2685 39.3821 49.4582 39.6666 49.4266 40.7623C49.0577 50.8765 44.7479 58.8836 36.5918 64.8467C35.9701 65.2998 35.3483 65.7633 34.7266 66.2164C33.7361 66.9538 33.7045 66.9538 32.5348 66.5956ZM36.9817 33.735C37.0554 33.7034 37.1187 33.6718 37.1924 33.6402C37.066 32.692 37.0765 31.7017 36.792 30.8167C36.2756 29.2363 34.7898 28.2987 33.0195 28.2987C24.2733 28.2881 15.5271 28.2987 6.78094 28.2987C6.69664 28.2987 6.6018 28.2987 6.5175 28.3092C4.35729 28.404 2.69235 30.0581 2.68182 32.2179C2.66074 39.7193 2.66074 47.2101 2.68182 54.7115C2.68182 56.513 3.84095 58.0196 5.56912 58.5675C6.14868 58.7571 6.74933 58.9152 7.33943 59.0837C8.66717 59.463 9.35211 60.3059 9.46802 61.6966C9.76308 65.2155 10.0371 68.7344 10.3637 72.2427C10.5955 74.7713 12.3237 76.2989 14.8633 76.2989C18.1826 76.2989 21.5019 76.2989 24.8213 76.2989C25.1585 76.2989 25.4852 76.2884 25.8224 76.2357C27.6875 75.9618 29.2049 74.4025 29.3735 72.5167C29.6054 70.0513 29.7845 67.586 30.0058 65.1206C30.0374 64.7624 29.9215 64.5517 29.637 64.341C21.8602 58.3884 17.8033 50.5077 17.445 40.7202C17.4134 39.793 17.7822 39.2662 18.6146 38.8975C23.2407 36.8114 27.8456 34.6938 32.4505 32.5656C33.1565 32.239 33.7677 32.2284 34.4526 32.5761C35.2851 32.9975 36.1387 33.3558 36.9817 33.735ZM46.7711 41.8475C46.7395 41.5209 46.8975 41.1732 46.4339 40.9625C42.2294 39.0661 38.0354 37.1275 33.8309 35.2206C33.6413 35.1363 33.3357 35.1047 33.1565 35.189C28.9415 37.1064 24.7265 39.0345 20.5114 40.9625C20.2374 41.0889 20.111 41.2259 20.1321 41.5525C20.4166 46.7044 22.0078 51.4138 24.8951 55.6913C27.0974 58.9468 29.9952 61.4648 33.1881 63.6878C33.441 63.8669 33.5886 63.7826 33.7782 63.6351C34.8109 62.845 35.8858 62.118 36.8763 61.2751C42.9249 56.197 46.1388 49.6754 46.7711 41.8475Z" fill="#DC6741"/>
<path d="M19.8791 1.58393e-05C26.2754 -0.0105198 31.5337 5.23622 31.5337 11.6208C31.5337 18.0686 26.3387 23.3048 19.9002 23.3259C13.4933 23.347 8.20347 18.0791 8.214 11.6735C8.23508 5.23622 13.4512 0.0105515 19.8791 1.58393e-05ZM19.8897 20.6814C24.8739 20.6814 28.8888 16.6252 28.8888 11.5892C28.8888 6.70067 24.8318 2.66553 19.9002 2.65499C14.9581 2.64446 10.88 6.69013 10.8695 11.6103C10.8695 16.6147 14.9054 20.692 19.8897 20.6814Z" fill="#DC6741"/>
<path d="M32.2292 49.7071C32.9879 48.8854 33.7571 48.053 34.5264 47.2102C35.5801 46.0618 36.6339 44.9029 37.6876 43.7545C38.3094 43.0802 39.0997 42.9959 39.6898 43.5227C40.2693 44.0495 40.2588 44.8713 39.6476 45.535C37.5401 47.8423 35.4326 50.1496 33.3145 52.4464C32.6296 53.1839 31.8709 53.205 31.1649 52.4991C30.2692 51.6035 29.384 50.708 28.4989 49.8019C27.9088 49.2014 27.8771 48.4112 28.3935 47.8739C28.9204 47.3261 29.7634 47.3472 30.364 47.9371C30.9436 48.5061 31.5021 49.075 32.0711 49.6545C32.1027 49.665 32.1449 49.665 32.2292 49.7071Z" fill="#DC6741"/>
</svg>
