<svg width="67" height="65" viewBox="0 0 67 65" fill="none" xmlns="http://www.w3.org/2000/svg">
<path d="M14.4564 17.8507C12.2516 17.8507 10.0614 17.8649 7.85659 17.8365C7.37792 17.8365 7.24738 17.9643 7.24738 18.4327C7.3054 22.2369 7.17485 26.0269 7.33441 29.8311C7.34891 30.1433 7.36342 30.4414 7.40693 30.7537C7.50847 31.4067 7.8856 31.8183 8.58184 31.9177C9.17655 32.017 9.78576 32.0312 10.395 32.017C10.6996 32.0028 10.8446 32.1022 10.8301 32.4145C10.8156 32.8403 10.8156 33.2662 10.8301 33.692C10.8446 34.0327 10.6851 34.1321 10.3515 34.1321C7.08782 34.1179 3.82418 34.1179 0.56054 34.1321C0.197913 34.1321 0.0673674 34.0327 0.0383573 33.6636C-0.0631782 32.0738 -0.0776833 32.0738 1.51787 32.0028C2.83784 31.9461 3.3165 31.506 3.44705 30.2143C3.47606 29.9162 3.47606 29.6039 3.47606 29.2917C3.47606 21.2433 3.47606 13.1949 3.47606 5.1465C3.47606 4.97616 3.47606 4.82002 3.47606 4.64968C3.41804 2.67662 2.85234 2.10883 0.850641 2.13722C0.197913 2.15142 -0.019663 1.98108 0.0093471 1.32812C0.0673674 0.0506021 0.0238523 0.0506022 1.3148 0.0506022C4.21582 0.0506022 7.11683 0.0647969 10.0178 0.0364075C10.598 0.0364075 10.8301 0.149965 10.8156 0.760337C10.7721 2.03786 10.8156 2.03786 9.53918 2.13722C7.97263 2.26497 7.45045 2.76179 7.34891 4.30901C7.13134 7.77251 7.3054 11.236 7.24738 14.7137C7.24738 15.097 7.39243 15.1963 7.75506 15.1821C12.2081 15.1679 16.6467 15.1679 21.0997 15.1821C21.5349 15.1821 21.6219 15.0118 21.6074 14.6427C21.5929 11.2218 21.6074 7.8009 21.5784 4.37998C21.5639 2.81857 20.8531 2.17981 19.2431 2.13722C18.1262 2.10883 18.1262 2.10883 18.1262 1.00165C18.1262 -0.034566 17.9811 0.0647968 19.098 0.0647968C22.1006 0.0647968 25.0886 0.0789915 28.0912 0.0506022C28.6424 0.0506022 28.8454 0.149965 28.8309 0.746142C28.7874 2.05205 28.8309 2.05205 27.5255 2.15142C26.075 2.25078 25.5673 2.76179 25.4803 4.19545C25.4367 4.91938 25.4512 5.6575 25.4512 6.38143C25.4512 13.9614 25.4512 21.5272 25.4512 29.1071C25.4512 29.4904 25.4657 29.8595 25.4803 30.2427C25.5528 31.5202 25.9444 31.9035 27.2499 31.9887C27.2934 31.9887 27.3514 31.9887 27.3949 32.0028C27.8446 32.0738 28.4828 31.8041 28.7004 32.1306C29.0195 32.5706 28.7729 33.2236 28.8019 33.7914C28.8164 34.0895 28.6279 34.1321 28.3813 34.1321C25.0886 34.1321 21.8105 34.1888 18.5178 34.0895C17.6475 34.0611 18.2712 33.181 18.1262 32.7126C18.0537 32.4713 17.9231 32.017 18.5178 32.017C19.098 32.017 19.6782 32.0596 20.2439 31.9319C21.1868 31.7331 21.5204 31.3925 21.5494 30.4414C21.5784 29.6181 21.5784 28.7948 21.5784 27.9574C21.5784 24.7919 21.5639 21.6265 21.5929 18.4753C21.5929 17.9785 21.4623 17.8365 20.9547 17.8507C18.8079 17.8649 16.6322 17.8507 14.4564 17.8507Z" fill="#F29C37"/>
<path d="M51.8069 17.8507C49.6311 17.8507 47.4554 17.8649 45.2796 17.8365C44.7719 17.8365 44.6269 17.9643 44.6414 18.4611C44.6704 22.1375 44.6559 25.8282 44.6559 29.5046C44.6559 29.5472 44.6559 29.6039 44.6559 29.6465C44.7139 31.6196 45.0765 31.9745 47.1073 32.0028C47.2958 32.0028 47.4989 32.017 47.6875 32.0028C48.0356 31.9745 48.1226 32.1022 48.1516 32.4429C48.2387 34.1179 48.2532 34.1179 46.5561 34.1179C43.7276 34.1179 40.8991 34.1037 38.0706 34.1321C37.5194 34.1321 37.3889 33.9759 37.3889 33.4507C37.4179 32.0596 37.3889 32.0596 38.8539 32.0028C40.1883 31.9461 40.5945 31.6054 40.7831 30.2995C40.8266 30.0014 40.8701 29.6891 40.8701 29.391C40.8701 21.2007 40.8701 13.0104 40.8556 4.83421C40.8556 4.62129 40.8266 4.40837 40.7976 4.19545C40.58 2.56306 40.1013 2.15142 38.3897 2.12303C37.3889 2.10883 37.3889 2.10883 37.3889 1.15779C37.3889 0.973257 37.4034 0.774531 37.3889 0.59C37.3308 0.13577 37.5339 0.0364075 37.9691 0.0364075C41.1602 0.0506022 44.3513 0.0506022 47.5424 0.0364075C48.0211 0.0364075 48.1516 0.178354 48.1516 0.646779C48.1516 2.03786 48.1661 2.03786 46.8027 2.15142C45.4102 2.27917 44.946 2.69081 44.7284 4.0535C44.6849 4.35159 44.6559 4.66388 44.6559 4.96197C44.6559 8.14158 44.6704 11.3354 44.6414 14.515C44.6414 15.0402 44.7864 15.1821 45.3231 15.1821C49.6456 15.1538 53.9682 15.1679 58.3052 15.1821C58.8274 15.1821 59.0159 15.0828 59.0014 14.5292C58.9724 11.3212 58.9869 8.11319 58.9869 4.90519C58.9869 4.62129 58.9579 4.3374 58.9144 4.0677C58.7548 2.76179 58.1891 2.25078 56.8547 2.15142C55.4767 2.05205 55.4912 2.05205 55.4912 0.660974C55.4912 0.206744 55.6072 0.0506022 56.1004 0.0506022C59.248 0.0647969 62.3811 0.0789915 65.5287 0.0506022C66.0654 0.0506022 66.1669 0.249328 66.1524 0.703558C66.1379 2.05205 66.1524 2.05205 64.818 2.15142C63.5415 2.25078 63.0483 2.69081 62.8743 3.91156C62.8163 4.3374 62.7872 4.76324 62.7872 5.17489C62.7872 13.1665 62.7872 21.1723 62.7872 29.1639C62.7872 29.6607 62.8308 30.1575 62.9033 30.6402C63.0193 31.4776 63.3239 31.7757 64.1797 31.9319C64.3973 31.9745 64.6149 31.9603 64.8325 31.9887C65.2531 32.0454 65.9348 31.8041 66.0509 32.1164C66.254 32.6274 66.1379 33.2662 66.1379 33.8624C66.1379 34.1321 65.8913 34.1037 65.7028 34.1037C62.4681 34.1037 59.2335 34.1037 55.9844 34.1037C55.6653 34.1037 55.5202 34.0185 55.5057 33.6636C55.3897 32.0738 55.3752 32.088 57.0142 31.9745C58.2762 31.8893 58.9579 31.6622 58.9434 30.2427C58.9434 29.9588 58.9869 29.6749 58.9869 29.391C58.9869 25.8282 58.9724 22.2653 59.0014 18.7024C59.0014 18.0211 58.8854 17.7798 58.1166 17.794C56.0134 17.8933 53.9101 17.8507 51.8069 17.8507Z" fill="#F29C37"/>
<path d="M32.7184 17.141C32.7184 11.6902 32.7184 6.23947 32.7184 0.802901C32.7184 0.0789721 33.023 -0.119754 33.7482 0.0647774C33.9078 0.107361 34.0093 0.178335 34.0093 0.334477C34.0093 0.476423 34.0093 0.61837 34.0093 0.760317C34.0093 11.6334 34.0093 22.5066 34.0093 33.3797C34.0093 33.7914 34.0673 34.1462 33.4146 34.132C32.8344 34.132 32.7039 33.9617 32.7039 33.4081C32.7184 27.9999 32.7184 22.5634 32.7184 17.141Z" fill="#F29C37"/>
<path d="M16.4599 52.8013C17.4379 52.8013 17.4281 52.8013 17.7705 53.7123C19.0028 56.984 20.245 60.246 21.4871 63.5177C21.6827 64.0466 21.6827 64.0466 21.1448 64.0466C19.9222 64.0466 19.9222 64.0466 19.4918 62.9202C19.2376 62.2345 18.9637 61.5586 18.7192 60.8631C18.6409 60.6378 18.5431 60.5202 18.2791 60.5202C17.0271 60.53 15.7654 60.5398 14.5135 60.5202C14.2005 60.5202 14.1321 60.6966 14.0538 60.9121C13.7213 61.8328 13.3692 62.7438 13.0562 63.6646C12.9584 63.9585 12.8117 64.0858 12.4987 64.0564C12.2444 64.0271 11.9803 64.0564 11.7163 64.0466C11.1979 64.0466 11.1979 64.0466 11.3935 63.5275C11.9021 62.1757 12.4205 60.8239 12.9291 59.4721C13.6919 57.464 14.4646 55.4657 15.1884 53.4478C15.3742 52.9189 15.6285 52.7132 16.1664 52.8111C16.2642 52.8111 16.3621 52.8013 16.4599 52.8013ZM16.3914 54.0845C15.9121 55.8869 15.2373 57.4738 14.6407 59.0803C14.5429 59.335 14.6798 59.3546 14.8754 59.3546C15.9024 59.3546 16.9293 59.3546 17.9465 59.3546C18.1715 59.3546 18.2302 59.2958 18.1421 59.0705C17.5749 57.464 16.8706 55.8869 16.3914 54.0845Z" fill="#9C9984"/>
<path d="M55.5254 64.0434C55.3979 64.0434 55.2606 64.0239 55.133 64.0434C54.7701 64.1118 54.6229 63.9165 54.5052 63.6041C54.1717 62.6864 53.8087 61.7883 53.485 60.8706C53.3967 60.6168 53.2692 60.5192 52.9945 60.5289C51.7682 60.5485 50.542 60.5485 49.3157 60.5289C49.0116 60.5289 48.8841 60.6461 48.7958 60.9097C48.4721 61.8469 48.1091 62.7645 47.7854 63.7017C47.6971 63.9458 47.5892 64.0825 47.2949 64.0532C47.0202 64.0239 46.7357 64.0239 46.4611 64.0532C45.9706 64.102 45.9706 63.9067 46.1177 63.526C46.7946 61.7688 47.4617 60.0115 48.1287 58.2543C48.7664 56.5849 49.404 54.9253 50.0221 53.2461C50.1398 52.9337 50.2771 52.797 50.6205 52.8361C51.1306 52.8947 51.7682 52.6311 52.141 52.9435C52.4844 53.2266 52.553 53.8319 52.7296 54.3102C53.8872 57.3366 55.0448 60.363 56.2121 63.3991C56.4672 64.0532 56.4574 64.0532 55.7707 64.0532C55.6824 64.0434 55.6039 64.0434 55.5254 64.0434ZM51.1306 54.3395C50.6401 55.9601 49.973 57.5026 49.3942 59.0743C49.2765 59.3965 49.4727 59.3867 49.6885 59.377C50.6695 59.377 51.6505 59.3672 52.6217 59.377C52.916 59.377 52.9847 59.3184 52.8768 59.0255C52.298 57.4733 51.6309 55.9503 51.1306 54.3395Z" fill="#9C9984"/>
<path d="M23.4965 58.518C23.4965 56.8163 23.5071 55.1244 23.4858 53.4227C23.4858 53.131 23.5497 53.0046 23.9113 52.9657C25.6026 52.8004 27.3046 52.6448 28.9853 53.0143C31.6765 53.5977 32.7934 56.1454 31.2191 58.0804C30.4638 59.0042 29.3682 59.3834 28.1662 59.5876C27.3791 59.7237 26.5813 59.714 25.7835 59.6654C25.358 59.6362 25.2835 59.7626 25.2835 60.1127C25.3048 61.2796 25.2729 62.4367 25.3048 63.6035C25.3154 63.9828 25.1772 64.0606 24.7942 64.0606C23.4965 64.0508 23.4965 64.0606 23.4965 62.8743C23.4965 61.4254 23.4965 59.9668 23.4965 58.518ZM26.7408 53.977C26.4217 53.9478 26.0494 54.0256 25.6771 54.045C25.3793 54.0548 25.2835 54.152 25.2835 54.4243C25.2942 55.6495 25.2942 56.8747 25.2835 58.0999C25.2835 58.3041 25.3261 58.411 25.592 58.4499C26.5387 58.5861 27.4641 58.5569 28.3683 58.2846C29.5171 57.9443 30.1234 57.1275 30.0915 56.0481C30.0596 55.066 29.4214 54.4048 28.2087 54.1228C27.7407 54.0061 27.262 53.9575 26.7408 53.977Z" fill="#9C9984"/>
<path d="M5.93532 65C4.69302 64.9794 3.26631 64.6811 2.04341 63.7037C0.723467 62.6646 0.11202 61.214 0.0149655 59.5164C-0.237378 55.2572 2.73251 52.7469 6.57589 52.788C7.42026 52.7983 8.24523 52.9012 9.06049 53.1584C9.39048 53.2613 9.44872 53.4053 9.33225 53.7448C9.0702 54.5473 9.07991 54.5473 8.31317 54.3415C7.28439 54.0637 6.23619 54.0226 5.1977 54.2592C3.02367 54.7427 1.79107 56.3786 1.73284 58.8374C1.6649 61.6975 3.44101 63.6317 6.14884 63.6728C7.06116 63.6831 7.95406 63.6111 8.81785 63.2819C9.06049 63.1893 9.12843 63.2716 9.17696 63.4979C9.4196 64.5885 9.70106 64.3827 8.5461 64.7119C7.76966 64.9383 6.98352 65 5.93532 65Z" fill="#9C9984"/>
<path d="M40.8834 59.0181C40.8834 57.5174 40.8725 56.0166 40.8942 54.5158C40.9051 54.143 40.7748 54.0449 40.3731 54.0547C39.2873 54.0744 38.2015 54.0547 37.1157 54.0646C36.7791 54.0744 36.6271 54.0057 36.638 53.6624C36.6706 52.5932 36.5077 52.809 37.5609 52.7992C40.4925 52.7894 43.4241 52.809 46.3557 52.7894C46.8117 52.7894 47.0397 52.8678 46.9529 53.3191C46.9312 53.4466 46.9312 53.5839 46.9529 53.7114C46.9855 53.9959 46.8443 54.0744 46.5511 54.0646C45.4654 54.0547 44.3796 54.0842 43.2938 54.0449C42.7835 54.0253 42.7075 54.1823 42.7075 54.5942C42.7292 57.5762 42.7075 60.5582 42.7292 63.5499C42.7292 63.9521 42.6206 64.0698 42.1646 64.06C40.8834 64.0404 40.8834 64.06 40.8834 62.9222C40.8834 61.6274 40.8834 60.3228 40.8834 59.0181Z" fill="#9C9984"/>
<path d="M60.0502 57.8305C60.0502 59.3316 60.0607 60.8327 60.0397 62.3338C60.0292 62.7262 60.1761 62.8244 60.5749 62.8244C62.1281 62.8047 63.6918 62.8244 65.245 62.8047C65.6228 62.8047 65.7697 62.8734 65.7592 63.2561C65.7382 64.0508 65.7592 64.0508 64.8987 64.0508C62.8522 64.0508 60.8058 64.0409 58.7593 64.0606C58.3395 64.0606 58.2346 63.9428 58.2451 63.57C58.2556 60.1263 58.2556 56.6826 58.2451 53.2486C58.2451 52.8758 58.3605 52.7875 58.7488 52.7875C60.0502 52.7973 60.0607 52.7875 60.0607 54.0041C60.0502 55.2894 60.0502 56.5648 60.0502 57.8305Z" fill="#9C9984"/>
<path d="M35.6871 58.4343C35.6871 60.1397 35.6763 61.8549 35.6979 63.5603C35.6979 63.9229 35.6224 64.0699 35.1688 64.0601C33.8299 64.0405 33.8299 64.0601 33.8299 62.835C33.8299 59.6791 33.8407 56.5231 33.8191 53.3672C33.8191 52.9458 33.8947 52.7694 34.4238 52.789C35.6871 52.8282 35.6871 52.7988 35.6871 53.9357C35.6871 55.4352 35.6871 56.9348 35.6871 58.4343Z" fill="#9C9984"/>
<path d="M30.9999 44.536C30.5053 44.536 30.0212 44.5466 29.5266 44.536C29.2846 44.536 29.1794 44.6212 29.1794 44.8766C29.1899 45.6004 29.1899 46.3242 29.1899 47.048C29.1899 47.3993 29.3477 47.5696 29.695 47.5802C29.8739 47.5909 30.1159 47.5057 30.1054 47.825C30.1054 48.1869 29.8318 48.0698 29.6424 48.0805C28.9794 48.0911 28.306 48.0805 27.643 48.0805C27.4747 48.0805 27.2747 48.1231 27.2537 47.857C27.2326 47.6015 27.3905 47.5696 27.5904 47.5802C28.0429 47.6015 28.1481 47.3567 28.1481 46.9522C28.1376 45.2385 28.1376 43.5248 28.1481 41.8005C28.1481 41.3428 28.0113 41.0873 27.5273 41.0873C27.38 41.0873 27.2432 41.0767 27.2432 40.8744C27.2432 40.6722 27.3273 40.587 27.5273 40.587C28.2955 40.587 29.0742 40.587 29.8423 40.587C30.0107 40.587 30.0949 40.6615 30.0949 40.8425C30.0949 41.0234 30.0107 41.098 29.8423 41.0873C29.2636 41.0767 29.1478 41.4279 29.1689 41.9176C29.1899 42.4498 29.1899 42.982 29.1689 43.5142C29.1583 43.8122 29.2741 43.9186 29.5687 43.908C30.5368 43.8974 31.4944 43.8974 32.4625 43.908C32.7887 43.9186 32.8835 43.7909 32.8729 43.4716C32.8519 42.9075 32.8519 42.3433 32.8729 41.7792C32.8835 41.3428 32.7151 41.098 32.2731 41.0873C32.0627 41.0873 31.9259 41.0447 31.9574 40.7893C31.9785 40.5445 32.1574 40.5764 32.3047 40.5764C33.0097 40.5764 33.7042 40.5764 34.4093 40.5764C34.5671 40.5764 34.7355 40.5551 34.7565 40.7893C34.7776 41.0447 34.6303 41.066 34.4303 41.0767C34.0305 41.0873 33.8937 41.3321 33.8937 41.7047C33.9042 43.4503 33.9042 45.2066 33.8937 46.9522C33.8937 47.3354 34.0199 47.5696 34.4303 47.5483C34.6303 47.5376 34.7671 47.5909 34.7565 47.8357C34.7355 48.0805 34.5671 48.0486 34.4093 48.0486C33.7042 48.0486 33.0097 48.0486 32.3047 48.0486C32.1153 48.0486 31.9469 48.0486 31.9574 47.7825C31.968 47.5483 32.1048 47.5376 32.2836 47.5483C32.7467 47.5802 32.894 47.3354 32.8835 46.899C32.8624 46.2603 32.8624 45.6217 32.8835 44.9937C32.894 44.6318 32.7993 44.4828 32.4204 44.5041C31.9469 44.5679 31.4734 44.536 30.9999 44.536Z" fill="#9C9984"/>
<path d="M3.79407 43.9145C4.26952 43.9145 4.74496 43.9039 5.2204 43.9145C5.50566 43.9252 5.63245 43.8293 5.62188 43.5204C5.60075 42.9238 5.61132 42.3166 5.62188 41.7201C5.63245 41.3259 5.44227 41.1342 5.06192 41.0916C4.89287 41.0809 4.69213 41.1235 4.69213 40.8359C4.69213 40.5163 4.92457 40.5802 5.10418 40.5802C5.79093 40.5802 6.47768 40.5802 7.16443 40.5802C7.31235 40.5802 7.49196 40.5483 7.51309 40.7933C7.53422 41.049 7.40743 41.0809 7.19613 41.0809C6.76295 41.0809 6.63616 41.3472 6.63616 41.7414C6.64673 43.4778 6.63616 45.2141 6.63616 46.9505C6.63616 47.3553 6.77351 47.6003 7.21726 47.5684C7.40743 47.5577 7.51309 47.611 7.51309 47.8347C7.51309 48.069 7.36517 48.0797 7.19613 48.0797C6.45655 48.0797 5.71697 48.0797 4.9774 48.0797C4.81892 48.0797 4.7027 48.0477 4.69213 47.856C4.68157 47.6536 4.76609 47.5577 4.96683 47.579C5.54792 47.6323 5.63245 47.2914 5.61132 46.812C5.59019 46.1729 5.60075 45.5337 5.61132 44.9052C5.62189 44.6282 5.51623 44.5324 5.24153 44.5324C4.25895 44.543 3.26581 44.543 2.28323 44.5324C1.96627 44.5324 1.8923 44.6602 1.90287 44.9478C1.91344 45.6189 1.924 46.29 1.90287 46.9612C1.8923 47.3873 2.05079 47.6003 2.48397 47.579C2.67414 47.5684 2.84319 47.5897 2.82206 47.856C2.81149 48.0903 2.66358 48.0903 2.49453 48.0903C1.77609 48.0903 1.04708 48.0903 0.328634 48.0903C0.170153 48.0903 0.0116718 48.101 0.0011064 47.856C-0.00945897 47.5897 0.138454 47.5684 0.339196 47.579C0.772377 47.6003 0.878031 47.334 0.878031 46.9718C0.878031 45.2354 0.878031 43.4991 0.878031 41.7627C0.878031 41.3366 0.730117 41.0703 0.265241 41.0916C0.0539333 41.1022 -0.00945897 41.0063 0.0011064 40.8039C0.0116718 40.6016 0.138454 40.5909 0.28637 40.5909C1.04708 40.5909 1.79722 40.5909 2.55792 40.5909C2.72697 40.5909 2.82206 40.6548 2.82206 40.8359C2.82206 41.017 2.74811 41.0916 2.56849 41.0916C1.9874 41.0809 1.87117 41.4325 1.90287 41.9331C1.924 42.4658 1.924 42.9984 1.90287 43.531C1.8923 43.8399 2.00853 43.9358 2.30436 43.9252C2.8115 43.9039 3.30807 43.9145 3.79407 43.9145Z" fill="#9C9984"/>
<path d="M61.1555 48.0578C60.3195 48.0578 59.4834 48.0578 58.6372 48.0578C58.466 48.0578 58.2444 48.1217 58.2545 47.802C58.2545 47.5248 58.4358 47.5568 58.5969 47.5568C58.9294 47.5462 59.0905 47.3543 59.0905 47.0239C59.0905 45.2226 59.0905 43.4106 59.0905 41.6093C59.0905 41.2043 58.8488 41.0977 58.5365 41.0764C58.3753 41.0657 58.2444 41.0657 58.2444 40.8312C58.2444 40.5541 58.4156 40.5754 58.5869 40.5754C60.249 40.5754 61.911 40.5754 63.563 40.5754C63.7847 40.5754 63.8955 40.6713 63.966 40.8845C64.1171 41.3535 64.2682 41.8225 64.4293 42.2914C64.4999 42.4833 64.4999 42.6112 64.2883 42.7071C64.0466 42.8137 63.9962 42.6432 63.9257 42.4833C63.563 41.588 62.9083 41.2256 62.0017 41.2682C61.4779 41.2895 60.9642 41.2789 60.4404 41.2682C60.1784 41.2576 60.0374 41.3215 60.0475 41.6413C60.0676 42.2808 60.0475 42.9203 60.0576 43.5492C60.0576 43.6877 60.0374 43.8263 60.2087 43.8902C60.9944 44.1993 61.8002 43.7304 61.911 42.867C61.9413 42.6432 62.0017 42.5579 62.2132 42.5686C62.4248 42.5792 62.455 42.6965 62.455 42.8777C62.455 43.7623 62.455 44.647 62.455 45.5317C62.455 45.7022 62.4449 45.8408 62.2233 45.8514C62.0118 45.8621 61.9413 45.7662 61.911 45.5423C61.7902 44.5831 61.1354 44.178 60.2187 44.4658C60.0676 44.5191 60.0475 44.615 60.0475 44.7429C60.0475 45.521 60.0475 46.2991 60.0475 47.0772C60.0475 47.3117 60.1684 47.4502 60.39 47.4502C60.9944 47.4502 61.5988 47.4609 62.2032 47.4182C63.14 47.3436 63.7746 46.7894 64.1775 45.9154C64.2682 45.7129 64.3185 45.4677 64.6409 45.6276C64.9733 45.7875 64.7517 45.9793 64.7013 46.1499C64.5502 46.6508 64.3588 47.1411 64.2178 47.6527C64.1271 47.9832 63.9861 48.1004 63.6537 48.0897C62.8378 48.0364 62.0017 48.0578 61.1555 48.0578Z" fill="#9C9984"/>
<path d="M38.9956 48.0904C37.0902 48.0904 35.6797 46.4733 35.6984 44.3172C35.7171 42.1921 37.1649 40.575 39.061 40.575C40.9011 40.575 42.2741 42.1714 42.2741 44.3172C42.2835 46.5251 40.9198 48.0904 38.9956 48.0904ZM36.7726 44.4623C36.7259 45.105 36.8473 45.7477 37.1742 46.3385C37.6039 47.116 38.2204 47.5306 39.061 47.5099C39.9017 47.4995 40.4621 47.0123 40.8264 46.2349C41.3214 45.1775 41.3775 44.0684 41.0692 42.9385C40.7423 41.7464 40.0885 41.1763 39.0984 41.1659C38.0989 41.1555 37.3143 41.7982 36.9594 42.897C36.8006 43.3842 36.7539 43.8922 36.7726 44.4623Z" fill="#9C9984"/>
<path d="M54.6447 48.09C54.0856 48.1003 53.5165 47.9249 53.0173 47.5432C52.8077 47.3884 52.6579 47.2853 52.5681 47.6463C52.5281 47.8114 52.4882 47.9868 52.2586 47.9662C52.009 47.9455 52.0689 47.7186 52.0389 47.5741C51.9092 46.9551 51.7993 46.3361 51.6995 45.7068C51.6695 45.552 51.5997 45.3766 51.8592 45.2941C52.0988 45.2219 52.1787 45.3354 52.2586 45.5314C52.6579 46.4702 53.2869 47.1615 54.2953 47.4091C54.8843 47.5535 55.4134 47.4194 55.8927 47.048C56.5815 46.5115 56.5216 45.6346 55.7729 45.1909C55.2337 44.8711 54.6247 44.7576 54.0357 44.5719C53.5764 44.4275 53.1072 44.2934 52.6879 44.0355C51.5198 43.303 51.4898 41.7967 52.6479 41.0436C53.5964 40.4246 54.5948 40.4452 55.5932 40.9507C55.7928 41.0539 55.9825 41.2706 56.0923 40.8579C56.1223 40.7238 56.2421 40.6825 56.3719 40.7031C56.5117 40.7238 56.5516 40.8269 56.5815 40.9507C56.7113 41.5182 56.8411 42.0856 56.9809 42.6427C57.0208 42.8078 57.0907 42.9625 56.8411 43.0347C56.6414 43.0966 56.5516 43.0554 56.4518 42.8697C56.1722 42.3538 55.8228 41.8999 55.3336 41.5801C54.7246 41.1777 54.0756 41.0642 53.3867 41.3531C53.0074 41.5182 52.7378 41.807 52.7078 42.23C52.6779 42.6633 52.9475 42.9625 53.3069 43.1585C53.826 43.4371 54.3951 43.5712 54.9542 43.7466C55.4035 43.891 55.8427 44.0355 56.2521 44.2521C57.51 44.9227 57.6698 46.5012 56.5716 47.4297C56.0125 47.9146 55.3835 48.1003 54.6447 48.09Z" fill="#9C9984"/>
<path d="M44.1468 43.6864C44.1468 43.0475 44.1362 42.3981 44.1468 41.7591C44.1574 41.3402 43.9776 41.0888 43.5438 41.0678C43.3428 41.0573 43.1947 41.0259 43.2159 40.785C43.237 40.5546 43.4063 40.5755 43.565 40.5755C44.2738 40.5755 44.972 40.5755 45.6808 40.5755C45.8606 40.5755 46.0405 40.5546 46.0405 40.8269C46.0405 41.0573 45.9029 41.0678 45.7337 41.0783C45.3211 41.0992 45.1518 41.3192 45.1624 41.7277C45.173 43.0161 45.1518 44.3044 45.1836 45.5928C45.2153 46.6926 45.9876 47.3734 47.1089 47.3734C48.2515 47.3734 49.066 46.6926 49.1189 45.5928C49.1718 44.3254 49.1507 43.058 49.1507 41.7801C49.1507 41.3821 48.992 41.0992 48.5477 41.0783C48.3573 41.0678 48.2515 41.0154 48.262 40.806C48.2726 40.5755 48.4419 40.586 48.6006 40.586C49.2036 40.586 49.796 40.586 50.399 40.586C50.5683 40.586 50.7164 40.6069 50.7269 40.8269C50.7481 41.0469 50.6211 41.0783 50.4413 41.0992C49.9335 41.1411 49.8383 41.4973 49.8383 41.9163C49.8383 43.0161 49.8383 44.1054 49.8383 45.2052C49.8383 46.546 49.2776 47.4468 48.1986 47.8657C47.0031 48.3266 45.6279 48.0647 44.771 47.2058C44.3267 46.7554 44.1468 46.2003 44.1363 45.5928C44.1468 44.9434 44.1574 44.3149 44.1468 43.6864Z" fill="#9C9984"/>
<path d="M20.29 48.0068C19.5988 48.0068 18.9076 48.0068 18.2164 48.0068C18.0584 48.0068 17.8708 48.0596 17.8609 47.7849C17.851 47.5208 17.9992 47.4996 18.1769 47.5102C18.5916 47.5208 18.7299 47.2672 18.7299 46.8763C18.7299 45.1541 18.7299 43.4318 18.7299 41.7202C18.7299 41.3187 18.562 41.0863 18.167 41.0757C17.9893 41.0757 17.8313 41.0651 17.851 40.801C17.8708 40.5263 18.0584 40.5791 18.2164 40.5791C18.878 40.5791 19.5297 40.5791 20.1913 40.5791C20.3592 40.5791 20.5369 40.5474 20.5566 40.8115C20.5764 41.0863 20.4085 41.0757 20.2407 41.0757C19.8556 41.0863 19.6877 41.287 19.6976 41.7096C19.7074 43.4318 19.7074 45.1541 19.6976 46.8657C19.6976 47.2883 19.8556 47.3834 20.2209 47.4046C21.4552 47.4574 22.413 47.0348 22.9463 45.7774C23.0154 45.5978 23.0845 45.4816 23.3116 45.5767C23.5387 45.6718 23.4992 45.8197 23.44 45.9993C23.4301 46.031 23.4202 46.0627 23.4005 46.0944C23.1832 46.7178 23.1734 47.5525 22.7191 47.9117C22.2847 48.2604 21.5441 47.9857 20.9417 48.0174C20.7245 48.0174 20.5073 48.0068 20.29 48.0068Z" fill="#9C9984"/>
<path d="M14.15 48.0691C13.3181 48.0691 12.4977 48.0691 11.6658 48.0691C11.4694 48.0691 11.2729 48.0798 11.2729 47.8136C11.2729 47.5794 11.4232 47.5582 11.6196 47.5688C12.1395 47.5794 12.2782 47.2707 12.2897 46.8769C12.3013 45.1843 12.3013 43.4811 12.2897 41.7886C12.2897 41.3734 12.1395 41.0434 11.5849 41.0753C11.3654 41.086 11.2729 41.0008 11.2845 40.7986C11.2961 40.5963 11.4347 40.575 11.5965 40.575C12.4284 40.575 13.2488 40.575 14.0807 40.575C14.3002 40.575 14.3926 40.6495 14.3926 40.8518C14.3926 41.0541 14.2655 41.0753 14.0922 41.0753C13.5376 41.0647 13.3643 41.3521 13.3643 41.8205C13.3759 43.5024 13.3759 45.1737 13.3643 46.8556C13.3643 47.2814 13.5145 47.4411 13.9998 47.4623C15.4672 47.5262 16.5995 47.0898 17.2235 45.8017C17.3159 45.6101 17.4199 45.5356 17.6625 45.6314C17.8936 45.7166 17.8705 45.8443 17.8012 46.0146C17.5701 46.6107 17.339 47.2069 17.1195 47.8136C17.0271 48.0798 16.8306 48.0904 16.5764 48.0904C15.7561 48.0585 14.9473 48.0691 14.15 48.0691Z" fill="#9C9984"/>
<path d="M9.41186 40.575C9.65808 40.575 9.9043 40.575 10.1505 40.575C10.256 40.575 10.3264 40.6177 10.3334 40.8095C10.3334 40.9801 10.2983 41.0654 10.1716 41.0761C9.80582 41.0867 9.73547 41.4598 9.73547 41.9182C9.73547 43.5492 9.73547 45.1802 9.73547 46.8112C9.73547 47.2483 9.79175 47.6 10.1576 47.5787C10.2701 47.5681 10.3264 47.6427 10.3264 47.8346C10.3264 48.0158 10.2701 48.0904 10.1576 48.0904C9.65105 48.0904 9.15157 48.0904 8.64506 48.0904C8.53954 48.0904 8.46215 48.0478 8.45512 47.8559C8.44808 47.6427 8.5114 47.5681 8.64506 47.5787C8.96163 47.6 9.06012 47.2802 9.06012 46.8965C9.06715 45.1802 9.06715 43.4533 9.06012 41.737C9.06012 41.3426 8.92646 41.0974 8.65913 41.0867C8.53954 41.0761 8.45512 41.0547 8.45512 40.8309C8.46215 40.5537 8.58175 40.5857 8.70134 40.5857C8.94052 40.575 9.17971 40.575 9.41186 40.575Z" fill="#9C9984"/>
</svg>
